<?xml version="1.0" encoding="UTF-8" standalone="no" ?>
<!DOCTYPE svg PUBLIC "-//W3C//DTD SVG 1.1//EN" "http://www.w3.org/Graphics/SVG/1.1/DTD/svg11.dtd">
<svg xmlns="http://www.w3.org/2000/svg" xmlns:xlink="http://www.w3.org/1999/xlink" version="1.1" width="500" height="500" viewBox="0 0 500 500" xml:space="preserve">
<desc>Created with Fabric.js 5.3.0</desc>
<defs>
</defs>
<g transform="matrix(0.699149337 0 0 0.699149337 250 250)" id="PqNSCTW3HNvXNUC20cTAc"  >
<g style="" vector-effect="non-scaling-stroke"   >
		<g transform="matrix(1 0 0 1 -70.0173610606 -243.410285395)" id="60z8rvsixODhGTTdv4x1j"  >
<path style="stroke: rgb(120,122,122); stroke-width: 2; stroke-dasharray: none; stroke-linecap: butt; stroke-dashoffset: 0; stroke-linejoin: miter; stroke-miterlimit: 4; fill: none; fill-rule: nonzero; opacity: 1;" vector-effect="non-scaling-stroke"  transform=" translate(-460.23, -261.8220682809)" d="M 492.96 290.25 Q 483.65 270.53 469.72 253.78 Q 461.74 244.19 451.19 238.56 Q 440.22 232.71 427.5 234.29" stroke-linecap="round" />
</g>
		<g transform="matrix(1 0 0 1 -117.7473610606 -264.4423536759)" id="lA7IwN7IgYciPOi9w0rNw"  >
<path style="stroke: rgb(133,148,158); stroke-width: 2; stroke-dasharray: none; stroke-linecap: butt; stroke-dashoffset: 0; stroke-linejoin: miter; stroke-miterlimit: 4; fill: none; fill-rule: nonzero; opacity: 1;" vector-effect="non-scaling-stroke"  transform=" translate(-412.5, -240.79)" d="M 427.5 234.29 Q 410.5 236.25 397.5 247.29" stroke-linecap="round" />
</g>
		<g transform="matrix(1 0 0 1 -169.7473610606 -229.4361172484)" id="8z1wJxcXmkAwzWZdcRbeB"  >
<path style="stroke: rgb(242,242,240); stroke-width: 2; stroke-dasharray: none; stroke-linecap: butt; stroke-dashoffset: 0; stroke-linejoin: miter; stroke-miterlimit: 4; fill: none; fill-rule: nonzero; opacity: 1;" vector-effect="non-scaling-stroke"  transform=" translate(-360.5, -275.7962364275)" d="M 397.5 247.29 Q 396.96 246.47 396.5 247.06 C 396.34 247.27 396.06 247.31 395.87 247.17 Q 394.52 246.16 392.88 246.95 C 392.59 247.08 392.27 247.09 391.99 246.96 Q 390.56 246.3 389.5 246.75 Q 387.53 247.59 385.88 247.26 Q 383.08 246.71 383.03 246.71 Q 380.57 246.7 378.18 247.2 Q 375.39 247.77 373.37 247.86 Q 368.4 248.08 365 249.25 Q 363.55 249.75 362.54 249.71 Q 360.88 249.65 360.82 249.66 Q 352.64 250.69 346.43 256.17 Q 332.12 268.8 327 287.25 Q 326.22 290.05 324.3 304.16 Q 324.24 304.56 324.06 304.78 Q 323.83 305.04 323.5 305.21" stroke-linecap="round" />
</g>
		<g transform="matrix(1 0 0 1 -234.5911723511 -126.5023536759)" id="EK0i0vqIhzMbsB54Ig82s"  >
<path style="stroke: rgb(132,147,156); stroke-width: 2; stroke-dasharray: none; stroke-linecap: butt; stroke-dashoffset: 0; stroke-linejoin: miter; stroke-miterlimit: 4; fill: none; fill-rule: nonzero; opacity: 1;" vector-effect="non-scaling-stroke"  transform=" translate(-295.6561887095, -378.73)" d="M 323.5 305.21 L 269.26 305.25 C 268.96 305.25 268.7 305.45 268.62 305.74 Q 267.72 309.2 267.92 312.73 Q 268.24 318.19 268.24 318.28 Q 267.86 396.05 268 412.75 Q 268.25 444.26 268.04 452.25" stroke-linecap="round" />
</g>
		<g transform="matrix(1 0 0 1 -261.934409182 -51.8373536759)" id="hnmMqK41N1Y5bSww2yzc3"  >
<path style="stroke: rgb(120,122,122); stroke-width: 2; stroke-dasharray: none; stroke-linecap: butt; stroke-dashoffset: 0; stroke-linejoin: miter; stroke-miterlimit: 4; fill: none; fill-rule: nonzero; opacity: 1;" vector-effect="non-scaling-stroke"  transform=" translate(-268.3129518786, -453.395)" d="M 268.04 452.25 Q 267.38 454.22 269 454.54" stroke-linecap="round" />
</g>
		<g transform="matrix(1 0 0 1 -261.5228658794 -27.4823536759)" id="8UPQEtVW3pw6QK_23M15E"  >
<path style="stroke: rgb(242,242,240); stroke-width: 2; stroke-dasharray: none; stroke-linecap: butt; stroke-dashoffset: 0; stroke-linejoin: miter; stroke-miterlimit: 4; fill: none; fill-rule: nonzero; opacity: 1;" vector-effect="non-scaling-stroke"  transform=" translate(-268.7244951812, -477.75)" d="M 269 454.54 Q 268.57 455.62 269.11 456.43 C 269.31 456.72 269.39 457.04 269.34 457.3 Q 267.16 468.4 267.5 474 Q 268.07 483.37 267.56 492.75 Q 267.37 496.27 269.06 499.27 Q 269.13 499.39 269.76 499.9 Q 270.18 500.24 270 500.96" stroke-linecap="round" />
</g>
		<g transform="matrix(1 0 0 1 -261.2125965148 18.8224391138)" id="HMQXYcCZy9r5KWULX3ro6"  >
<path style="stroke: rgb(132,147,156); stroke-width: 2; stroke-dasharray: none; stroke-linecap: butt; stroke-dashoffset: 0; stroke-linejoin: miter; stroke-miterlimit: 4; fill: none; fill-rule: nonzero; opacity: 1;" vector-effect="non-scaling-stroke"  transform=" translate(-269.0347645458, -524.0547927897)" d="M 270 500.96 Q 268.17 500.28 268.18 501.56 Q 268.43 524.13 268.07 546.7 C 268.06 547.07 268.21 547.38 268.45 547.48 Q 268.87 547.67 269.29 547.25" stroke-linecap="round" />
</g>
		<g transform="matrix(1 0 0 1 -256.7273610606 41.9126463241)" id="FYTuvNSqUQnkpj8sse-dl"  >
<path style="stroke: rgb(120,122,122); stroke-width: 2; stroke-dasharray: none; stroke-linecap: butt; stroke-dashoffset: 0; stroke-linejoin: miter; stroke-miterlimit: 4; fill: none; fill-rule: nonzero; opacity: 1;" vector-effect="non-scaling-stroke"  transform=" translate(-273.52, -547.145)" d="M 269.29 547.25 L 277.75 547.04" stroke-linecap="round" />
</g>
		<g transform="matrix(1 0 0 1 -257.5281430145 65.7876463241)" id="O-AMkV90fJhje8lYZMVrn"  >
<path style="stroke: rgb(242,242,240); stroke-width: 2; stroke-dasharray: none; stroke-linecap: butt; stroke-dashoffset: 0; stroke-linejoin: miter; stroke-miterlimit: 4; fill: none; fill-rule: nonzero; opacity: 1;" vector-effect="non-scaling-stroke"  transform=" translate(-272.7192180461, -571.02)" d="M 277.75 547.04 L 269.77 548.21 C 269.17 548.3 268.72 548.77 268.7 549.33 Q 268.49 557.76 268.69 565.72 Q 268.74 567.62 268.27 569.72 Q 267.63 572.54 267.75 573.75 Q 268.64 582.76 267.77 591.75 Q 267.7 592.47 267.86 593.36 Q 268.01 594.17 268.04 595" stroke-linecap="round" />
</g>
		<g transform="matrix(1 0 0 1 -188.0345537542 180.2676463241)" id="qtOE--7HHqkS-ihji401S"  >
<path style="stroke: rgb(132,147,156); stroke-width: 2; stroke-dasharray: none; stroke-linecap: butt; stroke-dashoffset: 0; stroke-linejoin: miter; stroke-miterlimit: 4; fill: none; fill-rule: nonzero; opacity: 1;" vector-effect="non-scaling-stroke"  transform=" translate(-342.2128073064, -685.5)" d="M 268.04 595 Q 267.88 680.63 268.09 766.25 Q 268.1 770.75 268 775.17 C 267.99 775.63 268.35 776 268.81 776 L 416.5 775.96" stroke-linecap="round" />
</g>
		<g transform="matrix(1 0 0 1 -98.3723610606 270.7276463241)" id="j-VTD-FMGsi3HFOwLyaeE"  >
<path style="stroke: rgb(120,122,122); stroke-width: 2; stroke-dasharray: none; stroke-linecap: butt; stroke-dashoffset: 0; stroke-linejoin: miter; stroke-miterlimit: 4; fill: none; fill-rule: nonzero; opacity: 1;" vector-effect="non-scaling-stroke"  transform=" translate(-431.875, -775.96)" d="M 416.5 775.96 L 447.25 775.96" stroke-linecap="round" />
</g>
		<g transform="matrix(1 0 0 1 -55.0173610606 270.1067198937)" id="lCQziEwOubvFIN_KxQ7zM"  >
<path style="stroke: rgb(242,242,240); stroke-width: 2; stroke-dasharray: none; stroke-linecap: butt; stroke-dashoffset: 0; stroke-linejoin: miter; stroke-miterlimit: 4; fill: none; fill-rule: nonzero; opacity: 1;" vector-effect="non-scaling-stroke"  transform=" translate(-475.23, -775.3390735696)" d="M 447.25 775.96 Q 452.7 777.37 458.27 776.34 Q 464.44 775.2 466 775.5 Q 469.13 776.11 472.64 775.42 Q 474.39 775.09 476.09 775.6 Q 478.11 776.22 480.51 775.84 Q 480.69 775.81 480.5 775.8 Q 476.61 775.59 480.5 775.49 Q 482.67 775.43 484.84 775.35 Q 486.08 775.3 489.15 775.39 Q 494.45 775.54 499.52 773.91 C 499.79 773.82 500.13 773.82 500.47 773.91 Q 501.32 774.11 501.86 773.68 C 502.02 773.55 502.27 773.6 502.34 773.79 Q 502.64 774.49 503.21 775" stroke-linecap="round" />
</g>
		<g transform="matrix(1 0 0 1 -25.3923610606 270.5049392876)" id="FSEl--NIfldaS8rmCXvye"  >
<path style="stroke: rgb(133,148,158); stroke-width: 2; stroke-dasharray: none; stroke-linecap: butt; stroke-dashoffset: 0; stroke-linejoin: miter; stroke-miterlimit: 4; fill: none; fill-rule: nonzero; opacity: 1;" vector-effect="non-scaling-stroke"  transform=" translate(-504.855, -775.7372929635)" d="M 503.21 775 Q 504.28 776.76 506.5 775.96" stroke-linecap="round" />
</g>
		<g transform="matrix(1 0 0 1 0.8282709874 269.8528034903)" id="ArFOYfD69cp_7egrYeq4L"  >
<path style="stroke: rgb(120,122,122); stroke-width: 2; stroke-dasharray: none; stroke-linecap: butt; stroke-dashoffset: 0; stroke-linejoin: miter; stroke-miterlimit: 4; fill: none; fill-rule: nonzero; opacity: 1;" vector-effect="non-scaling-stroke"  transform=" translate(-531.075632048, -775.0851571662)" d="M 506.5 775.96 L 555.18 776.42 C 555.45 776.43 555.67 776.2 555.65 775.93 L 555.54 773.75" stroke-linecap="round" />
</g>
		<g transform="matrix(1 0 0 1 53.7926389394 268.989293106)" id="c0w7AWuAsSY656UN_oiXy"  >
<path style="stroke: rgb(241,242,239); stroke-width: 2; stroke-dasharray: none; stroke-linecap: butt; stroke-dashoffset: 0; stroke-linejoin: miter; stroke-miterlimit: 4; fill: none; fill-rule: nonzero; opacity: 1;" vector-effect="non-scaling-stroke"  transform=" translate(-584.04, -774.2216467819)" d="M 555.54 773.75 Q 555.8 771.77 556.32 772.64 Q 556.49 772.93 556.46 773.41 Q 556.39 774.49 556.63 775.52 C 556.68 775.75 556.93 775.94 557.26 775.98 L 560.02 776.35 C 560.31 776.39 560.59 776.29 560.77 776.08 Q 561.28 775.48 562.1 775.74 Q 562.7 775.93 563.05 775.9 Q 569.4 775.35 575.75 774.75 Q 579.65 774.38 581.79 775.08 Q 582.29 775.24 582.74 775.17 Q 586.71 774.57 590.66 774.94 Q 593.55 775.22 595.35 775.18 Q 597.7 775.13 600.06 775.17 Q 602.02 775.21 605.42 774.85 Q 608.1 774.58 610.81 774.77 C 611.09 774.79 611.37 774.64 611.54 774.38 Q 612.12 773.49 612.54 774.75" stroke-linecap="round" />
</g>
		<g transform="matrix(1 0 0 1 111.8852450625 270.1426463241)" id="uf-YmPnwSHLVafi_dBiJC"  >
<path style="stroke: rgb(120,122,122); stroke-width: 2; stroke-dasharray: none; stroke-linecap: butt; stroke-dashoffset: 0; stroke-linejoin: miter; stroke-miterlimit: 4; fill: none; fill-rule: nonzero; opacity: 1;" vector-effect="non-scaling-stroke"  transform=" translate(-642.1326061231, -775.375)" d="M 612.54 774.75 Q 612.24 775.19 612.29 775.56 C 612.32 775.81 612.62 776 612.99 776 L 672 775.96" stroke-linecap="round" />
</g>
		<g transform="matrix(1 0 0 1 180.5026389394 270.7276463241)" id="aT4sk209EH4seLeFA-AO_"  >
<path style="stroke: rgb(132,147,156); stroke-width: 2; stroke-dasharray: none; stroke-linecap: butt; stroke-dashoffset: 0; stroke-linejoin: miter; stroke-miterlimit: 4; fill: none; fill-rule: nonzero; opacity: 1;" vector-effect="non-scaling-stroke"  transform=" translate(-710.75, -775.96)" d="M 672 775.96 L 749.5 775.96" stroke-linecap="round" />
</g>
		<g transform="matrix(1 0 0 1 239.7178029195 180.7526463241)" id="-rHHKgrmHpGDRzHJ5pKAx"  >
<path style="stroke: rgb(120,122,122); stroke-width: 2; stroke-dasharray: none; stroke-linecap: butt; stroke-dashoffset: 0; stroke-linejoin: miter; stroke-miterlimit: 4; fill: none; fill-rule: nonzero; opacity: 1;" vector-effect="non-scaling-stroke"  transform=" translate(-769.9651639801, -685.985)" d="M 749.5 775.96 L 789.8 776.26 C 790.09 776.26 790.32 776.03 790.32 775.75 Q 790.23 750.97 790.07 726.75 Q 790.02 719.13 790.15 706.76 Q 790.35 686.3 790 657 Q 789.72 633.93 790.43 596.56 C 790.44 596.22 790.22 595.95 789.95 595.93 L 787 595.71" stroke-linecap="round" />
</g>
		<g transform="matrix(1 0 0 1 256.7526389394 90.3926463241)" id="Xljf6Xw8GevF6dvNDFNWU"  >
<path style="stroke: rgb(132,147,156); stroke-width: 2; stroke-dasharray: none; stroke-linecap: butt; stroke-dashoffset: 0; stroke-linejoin: miter; stroke-miterlimit: 4; fill: none; fill-rule: nonzero; opacity: 1;" vector-effect="non-scaling-stroke"  transform=" translate(-787, -595.625)" d="M 787 595.71 L 787 595.54" stroke-linecap="round" />
</g>
		<g transform="matrix(1 0 0 1 259.8326326548 66.3926463241)" id="Eh4Cm9ABaZkr_3EdJbDg6"  >
<path style="stroke: rgb(241,242,239); stroke-width: 2; stroke-dasharray: none; stroke-linecap: butt; stroke-dashoffset: 0; stroke-linejoin: miter; stroke-miterlimit: 4; fill: none; fill-rule: nonzero; opacity: 1;" vector-effect="non-scaling-stroke"  transform=" translate(-790.0799937154, -571.625)" d="M 787 595.54 L 789.52 595.37 C 789.79 595.35 790.06 595.12 790.19 594.78 Q 791.9 590.37 790.84 585.73 Q 790.22 583.03 791.55 580.34 Q 792.69 578.02 792.07 575.5 Q 791.66 573.89 792.04 571.34 Q 792.41 568.87 792.28 567.25 Q 792.02 563.9 791.62 560.57 Q 791.56 560.08 791.77 559.61 Q 793.66 555.18 791.54 550.88 Q 791.34 550.48 791.37 549.94 Q 791.44 548.48 790.25 547.71" stroke-linecap="round" />
</g>
		<g transform="matrix(1 0 0 1 259.8776389394 18.8526463241)" id="yJxUfz5aQ9BoZyNLr1Rta"  >
<path style="stroke: rgb(126,133,138); stroke-width: 2; stroke-dasharray: none; stroke-linecap: butt; stroke-dashoffset: 0; stroke-linejoin: miter; stroke-miterlimit: 4; fill: none; fill-rule: nonzero; opacity: 1;" vector-effect="non-scaling-stroke"  transform=" translate(-790.125, -524.085)" d="M 790.25 547.71 L 790 500.46" stroke-linecap="round" />
</g>
		<g transform="matrix(1 0 0 1 259.630420069 -27.7523536759)" id="QlHXOU-zpNDe8PKfiUud9"  >
<path style="stroke: rgb(241,242,239); stroke-width: 2; stroke-dasharray: none; stroke-linecap: butt; stroke-dashoffset: 0; stroke-linejoin: miter; stroke-miterlimit: 4; fill: none; fill-rule: nonzero; opacity: 1;" vector-effect="non-scaling-stroke"  transform=" translate(-789.8777811296, -477.48)" d="M 790 500.46 L 788.66 499.3 C 788.45 499.12 788.4 498.79 788.53 498.5 Q 789.74 495.89 789 492.75 Q 788.4 490.2 789.18 487.7 Q 790.03 484.97 790.11 483.63 Q 790.36 479.66 791.06 471.06 Q 791.47 466.12 790.06 460.19 Q 789.76 458.92 790.91 457.1 C 791.11 456.78 791.18 456.44 791.09 456.2 L 790.46 454.5" stroke-linecap="round" />
</g>
		<g transform="matrix(1 0 0 1 259.9171154206 -125.2323536759)" id="HXhUpOTJi5H3IoP_8OyFD"  >
<path style="stroke: rgb(120,122,122); stroke-width: 2; stroke-dasharray: none; stroke-linecap: butt; stroke-dashoffset: 0; stroke-linejoin: miter; stroke-miterlimit: 4; fill: none; fill-rule: nonzero; opacity: 1;" vector-effect="non-scaling-stroke"  transform=" translate(-790.1644764812, -380)" d="M 790.46 454.5 Q 789.72 380 790.21 305.5" stroke-linecap="round" />
</g>
		<g transform="matrix(1 0 0 1 229.7326389394 -200.0433004059)" id="__pv3HoYoxt9_KrOAmwyb"  >
<path style="stroke: rgb(132,147,157); stroke-width: 2; stroke-dasharray: none; stroke-linecap: butt; stroke-dashoffset: 0; stroke-linejoin: miter; stroke-miterlimit: 4; fill: none; fill-rule: nonzero; opacity: 1;" vector-effect="non-scaling-stroke"  transform=" translate(-759.98, -305.18905327)" d="M 790.21 305.5 Q 782.13 304.79 771.75 305 Q 755.65 305.33 729.75 305.21" stroke-linecap="round" />
</g>
		<g transform="matrix(1 0 0 1 166.119394493 -228.7117692494)" id="0cbDVmJCeg5fPHz2QU50E"  >
<path style="stroke: rgb(241,242,239); stroke-width: 2; stroke-dasharray: none; stroke-linecap: butt; stroke-dashoffset: 0; stroke-linejoin: miter; stroke-miterlimit: 4; fill: none; fill-rule: nonzero; opacity: 1;" vector-effect="non-scaling-stroke"  transform=" translate(-696.3667555536, -276.5205844265)" d="M 729.75 305.21 Q 732.21 300.04 730.69 293.31 Q 730.19 291.11 729.35 290.11 Q 728.96 289.64 728.84 289.27 Q 726.36 282.09 723.1 275.26 Q 719.7 268.15 715.43 263.76 Q 711.32 259.55 706.33 256.37 Q 701.66 253.4 698.72 252.14 Q 695.02 250.55 690.25 249.75 Q 676.57 247.46 665.5 248.5 Q 662.91 248.74 661.57 250.13 C 661.38 250.32 661.39 250.64 661.58 250.87 Q 663.16 252.77 661 253.04" stroke-linecap="round" />
</g>
		<g transform="matrix(1 0 0 1 108.2526389394 -262.0127188897)" id="CfvJgJDsiTi2U46zbFm_u"  >
<path style="stroke: rgb(120,122,122); stroke-width: 2; stroke-dasharray: none; stroke-linecap: butt; stroke-dashoffset: 0; stroke-linejoin: miter; stroke-miterlimit: 4; fill: none; fill-rule: nonzero; opacity: 1;" vector-effect="non-scaling-stroke"  transform=" translate(-638.5, -243.2196347862)" d="M 661 253.04 Q 649.23 239.4 631.69 235.05 Q 623.97 233.14 616 233.79" stroke-linecap="round" />
</g>
		<g transform="matrix(1 0 0 1 57.8976389394 -243.0873536759)" id="Lf25_YQEZJucG7ndd_YX-"  >
<path style="stroke: rgb(133,148,158); stroke-width: 2; stroke-dasharray: none; stroke-linecap: butt; stroke-dashoffset: 0; stroke-linejoin: miter; stroke-miterlimit: 4; fill: none; fill-rule: nonzero; opacity: 1;" vector-effect="non-scaling-stroke"  transform=" translate(-588.145, -262.145)" d="M 616 233.79 Q 598.02 235.89 585.94 249.69 Q 569.59 268.36 560.29 290.5" stroke-linecap="round" />
</g>
		<g transform="matrix(1 0 0 1 86.3739961406 -174.2845447278)" id="ngt9LIVFZSUTJsw3B6TQn"  >
<path style="stroke: rgb(13,28,37); stroke-width: 2; stroke-dasharray: none; stroke-linecap: butt; stroke-dashoffset: 0; stroke-linejoin: miter; stroke-miterlimit: 4; fill: none; fill-rule: nonzero; opacity: 1;" vector-effect="non-scaling-stroke"  transform=" translate(-616.6213572012, -330.9478089481)" d="M 616 233.79 Q 619 235.4 622.28 235 Q 625 234.66 626.36 234.93 Q 634.43 236.47 641.82 239.82 Q 649.15 243.15 655.14 248.7 Q 673.75 265.96 675 292.5 Q 675.33 299.4 674.96 307.51 Q 674.6 315.48 672.8 322.3 Q 668.45 338.67 659.94 352.44 Q 647.23 372.99 628.91 390.28 Q 621.65 397.14 616.72 401.33 Q 611.39 405.87 603.81 411.56 Q 590.28 421.73 578.97 426.75 Q 575.67 428.22 570 428 Q 563.62 427.76 559.94 427.06 Q 558.46 426.78 558 427.71" stroke-linecap="round" />
</g>
		<g transform="matrix(1 0 0 1 26.3976389394 -77.7523536759)" id="CoifVJ4OmTLDwPeN3FvpD"  >
<path style="stroke: rgb(134,149,154); stroke-width: 2; stroke-dasharray: none; stroke-linecap: butt; stroke-dashoffset: 0; stroke-linejoin: miter; stroke-miterlimit: 4; fill: none; fill-rule: nonzero; opacity: 1;" vector-effect="non-scaling-stroke"  transform=" translate(-556.645, -427.48)" d="M 558 427.71 L 555.29 427.25" stroke-linecap="round" />
</g>
		<g transform="matrix(1 0 0 1 0.6476389394 96.1805208492)" id="4Doimqtv8QNDDQcMF2tPK"  >
<path style="stroke: rgb(13,28,37); stroke-width: 2; stroke-dasharray: none; stroke-linecap: butt; stroke-dashoffset: 0; stroke-linejoin: miter; stroke-miterlimit: 4; fill: none; fill-rule: nonzero; opacity: 1;" vector-effect="non-scaling-stroke"  transform=" translate(-530.895, -601.4128745251)" d="M 555.29 427.25 Q 553.87 426.61 554 428.5 Q 554.42 434.68 554.25 442.68 Q 554 454.38 554 456.83 Q 553.98 579.29 553.76 701.75 Q 553.7 737.63 554.52 774.2 C 554.53 774.65 554.16 775.02 553.72 775.01 Q 530 774.82 507.5 775.25 Q 506.97 775.26 506.5 775.96" stroke-linecap="round" />
</g>
		<g transform="matrix(1 0 0 1 -91.0634523148 5.9126463241)" id="AFrQMdGdSqGzxMLO_Jiay"  >
<path style="stroke: rgb(134,149,154); stroke-width: 2; stroke-dasharray: none; stroke-linecap: butt; stroke-dashoffset: 0; stroke-linejoin: miter; stroke-miterlimit: 4; fill: none; fill-rule: nonzero; opacity: 1;" vector-effect="non-scaling-stroke"  transform=" translate(-439.1839087458, -511.145)" d="M 503.21 775 Q 502.41 693.38 502.93 611.75 Q 502.99 602.19 502.89 591.76 Q 502.64 565.88 502.71 540 Q 502.74 530.03 502.66 520 Q 502.44 491.31 502.75 474.5 Q 503.16 451.75 502.99 428.12 C 502.99 427.85 502.75 427.64 502.48 427.69 Q 498.06 428.49 494.27 428.92 Q 488.13 429.63 482.26 428.38 Q 477.76 427.43 471.22 424.09 Q 458.65 417.68 446.56 408.69 Q 429.77 396.19 416.31 382.69 Q 399.88 366.2 388.2 342.94 Q 384.75 336.07 382.51 329.26 Q 380.29 322.51 378.5 315 Q 374.12 296.63 378.06 278.56 Q 382.1 260.05 397.5 247.29" stroke-linecap="round" />
</g>
		<g transform="matrix(1 0 0 1 -53.770349668 -174.6803874616)" id="cbXFn_Ugs9luMpy0Ou5hO"  >
<path style="stroke: rgb(13,28,37); stroke-width: 2; stroke-dasharray: none; stroke-linecap: butt; stroke-dashoffset: 0; stroke-linejoin: miter; stroke-miterlimit: 4; fill: none; fill-rule: nonzero; opacity: 1;" vector-effect="non-scaling-stroke"  transform=" translate(-476.4770113926, -330.5519662143)" d="M 427.5 234.29 Q 427.48 234.86 428.01 234.97 Q 430.58 235.47 433.2 235.33 Q 437.2 235.11 441 236.07 Q 443.76 236.78 448.36 238.58 Q 456.2 241.65 462 247.25 Q 471.68 256.6 479.88 269.14 Q 492.31 288.16 500.1 309.5 Q 509.8 336.06 515.5 363.75 Q 518.74 379.49 522.69 405.2 Q 523.35 409.48 523.9 415.84 Q 524.36 421.18 525.06 426.49 Q 525.11 426.86 525.46 426.75" stroke-linecap="round" />
</g>
		<g transform="matrix(1 0 0 1 12.6276389394 -146.5572029071)" id="pq3aVZeiyLU9KicQq0VAj"  >
<path style="stroke: rgb(134,149,154); stroke-width: 2; stroke-dasharray: none; stroke-linecap: butt; stroke-dashoffset: 0; stroke-linejoin: miter; stroke-miterlimit: 4; fill: none; fill-rule: nonzero; opacity: 1;" vector-effect="non-scaling-stroke"  transform=" translate(-542.875, -358.6751507688)" d="M 525.46 426.75 L 530.31 426.85 C 530.59 426.86 530.82 426.62 530.84 426.32 Q 532.48 399.03 538.5 367 Q 546.21 325.99 560.29 290.5" stroke-linecap="round" />
</g>
		<g transform="matrix(1 0 0 1 141.8117703753 -133.0223536759)" id="AYQGAXO6SjLTnhT8kZ3AX"  >
<path style="stroke: rgb(133,148,153); stroke-width: 2; stroke-dasharray: none; stroke-linecap: butt; stroke-dashoffset: 0; stroke-linejoin: miter; stroke-miterlimit: 4; fill: none; fill-rule: nonzero; opacity: 1;" vector-effect="non-scaling-stroke"  transform=" translate(-672.0591314359, -372.21)" d="M 729.75 305.21 Q 729.39 306.43 729.5 308.25 Q 730.59 326.06 726.56 343.54 Q 724.16 353.97 720.13 362.42 Q 714.47 374.32 705.56 384.29 Q 699.73 390.82 692.06 397.31 Q 664.82 420.38 631.95 432.72 Q 623.02 436.08 614 439.21" stroke-linecap="round" />
</g>
		<g transform="matrix(1 0 0 1 171.3976389394 -58.1999672544)" id="La3Xzg5HjQyBjuBzHcIwF"  >
<path style="stroke: rgb(121,123,118); stroke-width: 2; stroke-dasharray: none; stroke-linecap: butt; stroke-dashoffset: 0; stroke-linejoin: miter; stroke-miterlimit: 4; fill: none; fill-rule: nonzero; opacity: 1;" vector-effect="non-scaling-stroke"  transform=" translate(-701.645, -447.0323864215)" d="M 614 439.21 Q 613.56 439.15 613.22 439.29 C 612.98 439.39 612.83 439.7 612.83 440.06 L 612.83 454.44 C 612.83 454.71 613.05 454.92 613.3 454.89 Q 613.88 454.82 614.44 454.7 Q 615.38 454.5 616.08 454.49 Q 703.27 453.89 790.46 454.5" stroke-linecap="round" />
</g>
		<g transform="matrix(1 0 0 1 173.1076389394 -4.5023536759)" id="F4bfl2bY2F1xlTGiZqk77"  >
<path style="stroke: rgb(127,134,134); stroke-width: 2; stroke-dasharray: none; stroke-linecap: butt; stroke-dashoffset: 0; stroke-linejoin: miter; stroke-miterlimit: 4; fill: none; fill-rule: nonzero; opacity: 1;" vector-effect="non-scaling-stroke"  transform=" translate(-703.355, -500.73)" d="M 790 500.46 Q 703.5 501.1 617 500.76 Q 616.76 500.76 616.71 501" stroke-linecap="round" />
</g>
		<g transform="matrix(1 0 0 1 84.3320838852 18.4702879545)" id="bNNvBBMTX2WJXVvoGtkt-"  >
<path style="stroke: rgb(133,148,152); stroke-width: 2; stroke-dasharray: none; stroke-linecap: butt; stroke-dashoffset: 0; stroke-linejoin: miter; stroke-miterlimit: 4; fill: none; fill-rule: nonzero; opacity: 1;" vector-effect="non-scaling-stroke"  transform=" translate(-614.5794449458, -523.7026416304)" d="M 616.71 501 Q 612.24 499.96 612.58 503.68 Q 612.76 505.74 612.76 505.84 Q 613.02 526.14 613.06 546.44 C 613.06 546.75 613.29 547.01 613.56 547 L 614.75 546.96" stroke-linecap="round" />
</g>
		<g transform="matrix(1 0 0 1 172.2526389394 41.9623814698)" id="YkOjQYo6LS7LzO6AXagEs"  >
<path style="stroke: rgb(127,134,134); stroke-width: 2; stroke-dasharray: none; stroke-linecap: butt; stroke-dashoffset: 0; stroke-linejoin: miter; stroke-miterlimit: 4; fill: none; fill-rule: nonzero; opacity: 1;" vector-effect="non-scaling-stroke"  transform=" translate(-702.5, -547.1947351457)" d="M 614.75 546.96 Q 666.37 547.02 717.99 547 Q 724.63 547 738.01 546.81 Q 762.88 546.46 787.75 547.23 Q 788.15 547.25 788.68 547.5 Q 789.43 547.86 790.25 547.71" stroke-linecap="round" />
</g>
		<g transform="matrix(1 0 0 1 215.2526389394 90.4090055573)" id="WfaW62zNf77ACeh8K4sMn"  >
<path style="stroke: rgb(133,148,152); stroke-width: 2; stroke-dasharray: none; stroke-linecap: butt; stroke-dashoffset: 0; stroke-linejoin: miter; stroke-miterlimit: 4; fill: none; fill-rule: nonzero; opacity: 1;" vector-effect="non-scaling-stroke"  transform=" translate(-745.5, -595.6413592332)" d="M 787 595.54 Q 727.96 595.66 708 595.5 Q 705.21 595.48 704 595.79" stroke-linecap="round" />
</g>
		<g transform="matrix(1 0 0 1 173.3776389394 90.5238963241)" id="7rrPJuiJu1pJ21tvqfUVS"  >
<path style="stroke: rgb(189,249,243); stroke-width: 2; stroke-dasharray: none; stroke-linecap: butt; stroke-dashoffset: 0; stroke-linejoin: miter; stroke-miterlimit: 4; fill: none; fill-rule: nonzero; opacity: 1;" vector-effect="non-scaling-stroke"  transform=" translate(-703.625, -595.75625)" d="M 704 595.79 Q 703.62 595.7 703.25 595.79" stroke-linecap="round" />
</g>
		<g transform="matrix(1 0 0 1 127.6262142454 128.2876463241)" id="DXfBYou2oMbBb0iJ-_hk2"  >
<path style="stroke: rgb(168,232,226); stroke-width: 2; stroke-dasharray: none; stroke-linecap: butt; stroke-dashoffset: 0; stroke-linejoin: miter; stroke-miterlimit: 4; fill: none; fill-rule: nonzero; opacity: 1;" vector-effect="non-scaling-stroke"  transform=" translate(-657.873575306, -633.52)" d="M 703.25 595.79 L 613.92 596 C 613.42 596 613.02 596.4 613.01 596.89 Q 612.66 632.5 612.5 666.75 Q 612.49 669.79 612.79 671.25" stroke-linecap="round" />
</g>
		<g transform="matrix(1 0 0 1 82.7526389394 189.7676463241)" id="hZue5bISgfeiCX_4TPZ2p"  >
<path style="stroke: rgb(155,210,206); stroke-width: 2; stroke-dasharray: none; stroke-linecap: butt; stroke-dashoffset: 0; stroke-linejoin: miter; stroke-miterlimit: 4; fill: none; fill-rule: nonzero; opacity: 1;" vector-effect="non-scaling-stroke"  transform=" translate(-613, -695)" d="M 612.79 671.25 L 613.21 718.75" stroke-linecap="round" />
</g>
		<g transform="matrix(1 0 0 1 82.8776389394 234.7676463241)" id="U_ptrvaN04zVOQJlUpZVO"  >
<path style="stroke: rgb(133,148,152); stroke-width: 2; stroke-dasharray: none; stroke-linecap: butt; stroke-dashoffset: 0; stroke-linejoin: miter; stroke-miterlimit: 4; fill: none; fill-rule: nonzero; opacity: 1;" vector-effect="non-scaling-stroke"  transform=" translate(-613.125, -740)" d="M 613.21 718.75 L 613.04 761.25" stroke-linecap="round" />
</g>
		<g transform="matrix(1 0 0 1 82.5426389394 262.7676463241)" id="B36hqpcRP5zLBar1tknK7"  >
<path style="stroke: rgb(121,123,118); stroke-width: 2; stroke-dasharray: none; stroke-linecap: butt; stroke-dashoffset: 0; stroke-linejoin: miter; stroke-miterlimit: 4; fill: none; fill-rule: nonzero; opacity: 1;" vector-effect="non-scaling-stroke"  transform=" translate(-612.79, -768)" d="M 613.04 761.25 L 612.54 774.75" stroke-linecap="round" />
</g>
		<g transform="matrix(1 0 0 1 25.1381176334 95.2676463241)" id="D8dYdUyqb2DCXYQT4h8mU"  >
<path style="stroke: rgb(121,123,118); stroke-width: 2; stroke-dasharray: none; stroke-linecap: butt; stroke-dashoffset: 0; stroke-linejoin: miter; stroke-miterlimit: 4; fill: none; fill-rule: nonzero; opacity: 1;" vector-effect="non-scaling-stroke"  transform=" translate(-555.385478694, -600.5)" d="M 555.54 773.75 Q 555.27 744.01 555.25 676.75 Q 555.22 552 555.29 427.25" stroke-linecap="round" />
</g>
		<g transform="matrix(1 0 0 1 -82.6423610606 248.2476463241)" id="mcXBQsdMqicBp3LjMK8Z2"  >
<path style="stroke: rgb(122,123,119); stroke-width: 2; stroke-dasharray: none; stroke-linecap: butt; stroke-dashoffset: 0; stroke-linejoin: miter; stroke-miterlimit: 4; fill: none; fill-rule: nonzero; opacity: 1;" vector-effect="non-scaling-stroke"  transform=" translate(-447.605, -753.48)" d="M 447.25 775.96 L 447.96 731" stroke-linecap="round" />
</g>
		<g transform="matrix(1 0 0 1 -82.5170182495 220.3926463241)" id="S5U_p0WOfikZYxP96Rx7S"  >
<path style="stroke: rgb(133,148,152); stroke-width: 2; stroke-dasharray: none; stroke-linecap: butt; stroke-dashoffset: 0; stroke-linejoin: miter; stroke-miterlimit: 4; fill: none; fill-rule: nonzero; opacity: 1;" vector-effect="non-scaling-stroke"  transform=" translate(-447.7303428111, -725.625)" d="M 447.96 731 L 448 721.47 C 448.01 721.13 447.91 720.83 447.74 720.61 L 447.46 720.25" stroke-linecap="round" />
</g>
		<g transform="matrix(1 0 0 1 -82.7673610606 214.4126463241)" id="FNlpLwM_8n_m7MOSKpCbZ"  >
<path style="stroke: rgb(190,249,243); stroke-width: 2; stroke-dasharray: none; stroke-linecap: butt; stroke-dashoffset: 0; stroke-linejoin: miter; stroke-miterlimit: 4; fill: none; fill-rule: nonzero; opacity: 1;" vector-effect="non-scaling-stroke"  transform=" translate(-447.48, -719.645)" d="M 447.46 720.25 L 447.5 719.04" stroke-linecap="round" />
</g>
		<g transform="matrix(1 0 0 1 -130.0823610606 152.1590055573)" id="uWVFK30NqxjRZ-lzH6fI7"  >
<path style="stroke: rgb(168,232,226); stroke-width: 2; stroke-dasharray: none; stroke-linecap: butt; stroke-dashoffset: 0; stroke-linejoin: miter; stroke-miterlimit: 4; fill: none; fill-rule: nonzero; opacity: 1;" vector-effect="non-scaling-stroke"  transform=" translate(-400.165, -657.3913592332)" d="M 447.5 719.04 Q 448.08 718.52 448.08 717.75 Q 447.62 657.75 447.75 597.14 C 447.75 596.54 447.27 596.06 446.68 596.06 Q 401.72 596.04 356.25 595.75 Q 353.59 595.73 352.25 596.04" stroke-linecap="round" />
</g>
		<g transform="matrix(1 0 0 1 -220.1023610606 90.2876463241)" id="4vijTu2brIWR54YLDrp58"  >
<path style="stroke: rgb(133,148,152); stroke-width: 2; stroke-dasharray: none; stroke-linecap: butt; stroke-dashoffset: 0; stroke-linejoin: miter; stroke-miterlimit: 4; fill: none; fill-rule: nonzero; opacity: 1;" vector-effect="non-scaling-stroke"  transform=" translate(-310.145, -595.52)" d="M 352.25 596.04 Q 311.64 595.09 271.03 595.74 Q 270.31 595.75 269.54 595.46 Q 268.8 595.18 268.04 595" stroke-linecap="round" />
</g>
		<g transform="matrix(1 0 0 1 -167.4046762608 18.4006325573)" id="bgdCwP9fHxFtLHCiT-kGu"  >
<path style="stroke: rgb(122,123,119); stroke-width: 2; stroke-dasharray: none; stroke-linecap: butt; stroke-dashoffset: 0; stroke-linejoin: miter; stroke-miterlimit: 4; fill: none; fill-rule: nonzero; opacity: 1;" vector-effect="non-scaling-stroke"  transform=" translate(-362.8426847998, -523.6329862332)" d="M 277.75 547.04 Q 356.62 546.38 435.5 547.05 Q 441.38 547.1 447.24 547.5 C 447.41 547.51 447.56 547.37 447.56 547.2 Q 447.64 524.96 447.75 503.21 Q 447.75 503.11 447.86 501.81 Q 448.06 499.43 445.25 500.29" stroke-linecap="round" />
</g>
		<g transform="matrix(1 0 0 1 -172.6223610606 -4.6712460499)" id="wH5MOAcMz0Np7Mj8mmiT8"  >
<path style="stroke: rgb(134,148,153); stroke-width: 2; stroke-dasharray: none; stroke-linecap: butt; stroke-dashoffset: 0; stroke-linejoin: miter; stroke-miterlimit: 4; fill: none; fill-rule: nonzero; opacity: 1;" vector-effect="non-scaling-stroke"  transform=" translate(-357.625, -500.561107626)" d="M 445.25 500.29 Q 431.37 500.1 417.49 500.44 Q 404.96 500.74 397.5 500.73 Q 333.75 500.63 270 500.96" stroke-linecap="round" />
</g>
		<g transform="matrix(1 0 0 1 -171.8923610606 -57.712025821)" id="8s7iu1H3yiWffqhw_Me-8"  >
<path style="stroke: rgb(122,123,119); stroke-width: 2; stroke-dasharray: none; stroke-linecap: butt; stroke-dashoffset: 0; stroke-linejoin: miter; stroke-miterlimit: 4; fill: none; fill-rule: nonzero; opacity: 1;" vector-effect="non-scaling-stroke"  transform=" translate(-358.355, -447.5203278549)" d="M 269 454.54 Q 280.38 454.11 291.75 454.26 Q 307.09 454.46 311.75 454.42 Q 350.87 454.14 390 454.07 Q 417.38 454.03 445.97 455.04 C 446.51 455.06 446.97 454.62 447 454.06 L 447.71 440" stroke-linecap="round" />
</g>
		<g transform="matrix(1 0 0 1 -125.5173610606 -87.0023536759)" id="Je4fTW_crcbbYYb5GjKhM"  >
<path style="stroke: rgb(134,148,153); stroke-width: 2; stroke-dasharray: none; stroke-linecap: butt; stroke-dashoffset: 0; stroke-linejoin: miter; stroke-miterlimit: 4; fill: none; fill-rule: nonzero; opacity: 1;" vector-effect="non-scaling-stroke"  transform=" translate(-404.73, -418.23)" d="M 447.71 440 Q 427.73 436.08 408.19 426.56 Q 382.46 414.03 361.75 396.46" stroke-linecap="round" />
</g>
		<g transform="matrix(1 0 0 1 -187.3923610606 -148.1273536759)" id="xI3FgcmdpNhE3j5hVo__d"  >
<path style="stroke: rgb(122,123,119); stroke-width: 2; stroke-dasharray: none; stroke-linecap: butt; stroke-dashoffset: 0; stroke-linejoin: miter; stroke-miterlimit: 4; fill: none; fill-rule: nonzero; opacity: 1;" vector-effect="non-scaling-stroke"  transform=" translate(-342.855, -357.105)" d="M 361.75 396.46 Q 342.38 378.85 331.93 354.81 Q 324.23 337.09 323.96 317.75" stroke-linecap="round" />
</g>
		<g transform="matrix(1 0 0 1 -206.5173610606 -193.7523536759)" id="knzz5xMwxb_mkL3GU_wBg"  >
<path style="stroke: rgb(134,148,153); stroke-width: 2; stroke-dasharray: none; stroke-linecap: butt; stroke-dashoffset: 0; stroke-linejoin: miter; stroke-miterlimit: 4; fill: none; fill-rule: nonzero; opacity: 1;" vector-effect="non-scaling-stroke"  transform=" translate(-323.73, -311.48)" d="M 323.96 317.75 Q 323.51 311.91 323.92 306.07 Q 323.94 305.78 323.82 305.59 Q 323.69 305.38 323.5 305.21" stroke-linecap="round" />
</g>
		<g transform="matrix(1 0 0 1 87.7312233424 -164.1609699)" id="7ZisRpijdU5V6i3NDNkzU"  >
<path style="stroke: rgb(121,123,118); stroke-width: 2; stroke-dasharray: none; stroke-linecap: butt; stroke-dashoffset: 0; stroke-linejoin: miter; stroke-miterlimit: 4; fill: none; fill-rule: nonzero; opacity: 1;" vector-effect="non-scaling-stroke"  transform=" translate(-617.978584403, -341.0713837759)" d="M 661 253.04 Q 671.89 265.55 675 283 Q 679.4 307.71 671.5 330.21 Q 664.95 348.84 653.69 363.94 Q 634.24 390.01 607.56 410.31 Q 593.46 421.04 580.58 427.02 Q 577.15 428.62 573.61 428.83 Q 565.77 429.3 558 427.71" stroke-linecap="round" />
</g>
		<g transform="matrix(1 0 0 1 -21.0373610606 -146.7323536759)" id="FINdOG4xsSHeUY7wSUx2S"  >
<path style="stroke: rgb(121,123,118); stroke-width: 2; stroke-dasharray: none; stroke-linecap: butt; stroke-dashoffset: 0; stroke-linejoin: miter; stroke-miterlimit: 4; fill: none; fill-rule: nonzero; opacity: 1;" vector-effect="non-scaling-stroke"  transform=" translate(-509.21, -358.5)" d="M 492.96 290.25 Q 501.02 307.01 506.46 324.8 Q 512.6 344.85 513.69 349.56 Q 518.68 371.2 523.25 402 Q 525.44 416.72 525.46 426.75" stroke-linecap="round" />
</g>
		<g transform="matrix(1 0 0 1 237.5777636903 180.6026463241)" id="xPbYC1WaCWY9_xPTv7i77"  >
<path style="stroke: rgb(12,28,35); stroke-width: 2; stroke-dasharray: none; stroke-linecap: butt; stroke-dashoffset: 0; stroke-linejoin: miter; stroke-miterlimit: 4; fill: none; fill-rule: nonzero; opacity: 1;" vector-effect="non-scaling-stroke"  transform=" translate(-767.8251247509, -685.835)" d="M 787 595.71 Q 785.83 595.91 786.85 596.35 C 787.06 596.44 787.35 596.46 787.66 596.41 Q 788.82 596.23 789.27 597.04 Q 789.52 597.49 789.4 598.51 Q 789.01 601.57 789 606.25 Q 788.85 690.47 789.19 774.69 C 789.19 774.97 788.96 775.2 788.69 775.19 Q 773.44 774.9 758.19 775.31 Q 755.25 775.39 748.99 775.07 Q 748.81 775.06 748.65 775.09 Q 745.29 775.57 749 775.53 Q 752.87 775.5 756.74 775.69 Q 758.28 775.77 756 775.7 Q 752.74 775.59 749.5 775.96" stroke-linecap="round" />
</g>
		<g transform="matrix(1 0 0 1 112.2726389394 263.3726463241)" id="cud8RG4guwlEbramXIF90"  >
<path style="stroke: rgb(12,28,35); stroke-width: 2; stroke-dasharray: none; stroke-linecap: butt; stroke-dashoffset: 0; stroke-linejoin: miter; stroke-miterlimit: 4; fill: none; fill-rule: nonzero; opacity: 1;" vector-effect="non-scaling-stroke"  transform=" translate(-642.52, -768.605)" d="M 672 775.96 Q 670.98 775.25 670.5 775.25 Q 642.62 775.21 614.74 775 C 614.2 774.99 613.76 774.57 613.74 774.04 Q 613.52 769 613.75 763.75 Q 613.83 761.93 613.04 761.25" stroke-linecap="round" />
</g>
		<g transform="matrix(1 0 0 1 83.065599063 214.0176463241)" id="BeDHHIqg33Kp0wmziPxXB"  >
<path style="stroke: rgb(46,115,123); stroke-width: 2; stroke-dasharray: none; stroke-linecap: butt; stroke-dashoffset: 0; stroke-linejoin: miter; stroke-miterlimit: 4; fill: none; fill-rule: nonzero; opacity: 1;" vector-effect="non-scaling-stroke"  transform=" translate(-613.3129601236, -719.25)" d="M 613.21 718.75 Q 613.13 719.38 613.46 719.75" stroke-linecap="round" />
</g>
		<g transform="matrix(1 0 0 1 84.9826389394 214.8661264324)" id="SB8CJZgLUMb3VNzcbv-y9"  >
<path style="stroke: rgb(59,137,143); stroke-width: 2; stroke-dasharray: none; stroke-linecap: butt; stroke-dashoffset: 0; stroke-linejoin: miter; stroke-miterlimit: 4; fill: none; fill-rule: nonzero; opacity: 1;" vector-effect="non-scaling-stroke"  transform=" translate(-615.23, -720.0984801083)" d="M 613.46 719.75 Q 615.12 720.58 617 720.21" stroke-linecap="round" />
</g>
		<g transform="matrix(1 0 0 1 130.4726389394 152.7676463241)" id="kdYWS06YTTkW8xdiSzDjR"  >
<path style="stroke: rgb(80,154,160); stroke-width: 2; stroke-dasharray: none; stroke-linecap: butt; stroke-dashoffset: 0; stroke-linejoin: miter; stroke-miterlimit: 4; fill: none; fill-rule: nonzero; opacity: 1;" vector-effect="non-scaling-stroke"  transform=" translate(-660.72, -658)" d="M 617 720.21 L 703.95 719.94 C 704.22 719.93 704.44 719.71 704.44 719.44 L 704 595.79" stroke-linecap="round" />
</g>
		<g transform="matrix(1 0 0 1 129.8776389394 152.7676463241)" id="uh5Wv-tCGsAZ8PAREQaOo"  >
<path style="stroke: rgb(115,238,233); stroke-width: 2; stroke-dasharray: none; stroke-linecap: butt; stroke-dashoffset: 0; stroke-linejoin: miter; stroke-miterlimit: 4; fill: none; fill-rule: nonzero; opacity: 1;" vector-effect="non-scaling-stroke"  transform=" translate(-660.125, -658)" d="M 703.25 595.79 L 703.19 718.46 C 703.19 718.73 702.98 718.94 702.71 718.94 Q 671 718.81 639.31 718.94 Q 623.64 719 618.46 719.23 Q 617.94 719.25 617.62 719.51 Q 617.25 719.8 617 720.21" stroke-linecap="round" />
</g>
		<g transform="matrix(1 0 0 1 82.8776389394 190.2676463241)" id="moEex3k57uXkhWXZuVh2V"  >
<path style="stroke: rgb(81,199,197); stroke-width: 2; stroke-dasharray: none; stroke-linecap: butt; stroke-dashoffset: 0; stroke-linejoin: miter; stroke-miterlimit: 4; fill: none; fill-rule: nonzero; opacity: 1;" vector-effect="non-scaling-stroke"  transform=" translate(-613.125, -695.5)" d="M 613.46 719.75 L 613.19 671.82 C 613.19 671.61 613.12 671.44 613.01 671.37 L 612.79 671.25" stroke-linecap="round" />
</g>
		<g transform="matrix(1 0 0 1 171.7226389394 18.7476463241)" id="fPmEpEa61aTpxKt3KWS23"  >
<path style="stroke: rgb(18,39,51); stroke-width: 2; stroke-dasharray: none; stroke-linecap: butt; stroke-dashoffset: 0; stroke-linejoin: miter; stroke-miterlimit: 4; fill: none; fill-rule: nonzero; opacity: 1;" vector-effect="non-scaling-stroke"  transform=" translate(-701.97, -523.98)" d="M 614.75 546.96 Q 615.47 545.4 617.5 545.75 Q 619.97 546.17 622.58 545.66 Q 625.93 545.01 627.51 545.03 Q 634.76 545.12 642.01 545.3 Q 648.34 545.46 656.49 545.17 Q 667 544.8 677.52 545.08 Q 681.67 545.19 687.47 545.13 Q 691.71 545.09 697.44 545.19 Q 723.58 545.62 756.5 545.33 Q 765.22 545.25 772.49 545.55 Q 780.33 545.86 788.49 546.29 C 788.77 546.31 789 546.08 789 545.8 L 789.19 502.06 C 789.19 501.78 788.97 501.56 788.69 501.56 Q 773.38 501.66 758.07 501.57 Q 757.81 501.56 757.57 501.66 Q 757.34 501.76 757.11 501.85 Q 756.75 502 756.36 502 Q 684.4 502.11 661.44 501.81 Q 639.84 501.53 618.25 502.03 Q 616.74 502.07 616.71 501" stroke-linecap="round" />
</g>
		<g transform="matrix(1 0 0 1 171.6276233137 -125.7263998436)" id="GR_hlCB2to2D4TcsPAjIu"  >
<path style="stroke: rgb(12,28,36); stroke-width: 2; stroke-dasharray: none; stroke-linecap: butt; stroke-dashoffset: 0; stroke-linejoin: miter; stroke-miterlimit: 4; fill: none; fill-rule: nonzero; opacity: 1;" vector-effect="non-scaling-stroke"  transform=" translate(-701.8749843743, -379.5059538323)" d="M 790.21 305.5 Q 789.39 305.45 789.42 306.1 Q 789.46 306.78 789.44 306.9 Q 789 309.95 789 314.5 Q 789 383.75 789 453.01 C 789 453.28 788.77 453.51 788.49 453.5 Q 764.38 452.96 740.25 453.25 Q 726.33 453.42 651.56 452.82 Q 633.4 452.67 614.53 453.53 C 614.25 453.55 614.01 453.33 613.98 453.05 Q 613.39 446.23 614 439.21" stroke-linecap="round" />
</g>
		<g transform="matrix(1 0 0 1 -172.3890890691 18.5376463241)" id="2CF7A2rAlD-9_fVIRQ3My"  >
<path style="stroke: rgb(12,28,35); stroke-width: 2; stroke-dasharray: none; stroke-linecap: butt; stroke-dashoffset: 0; stroke-linejoin: miter; stroke-miterlimit: 4; fill: none; fill-rule: nonzero; opacity: 1;" vector-effect="non-scaling-stroke"  transform=" translate(-357.8582719915, -523.77)" d="M 445.25 500.29 Q 446.37 504.07 446.44 509.56 Q 446.66 527.53 446.5 545.13 C 446.49 545.77 445.97 546.28 445.34 546.26 Q 436.39 546.02 427.6 545.66 Q 417.9 545.25 409.88 545.25 Q 352.66 545.25 295.43 545.25 Q 289.02 545.25 282.59 545.58 Q 276.17 545.92 269.75 546.25 Q 268.99 546.29 269.29 547.25" stroke-linecap="round" />
</g>
		<g transform="matrix(1 0 0 1 -130.4773610606 213.6150414896)" id="kg_LbYZmgwn659kQyU5MD"  >
<path style="stroke: rgb(115,238,233); stroke-width: 2; stroke-dasharray: none; stroke-linecap: butt; stroke-dashoffset: 0; stroke-linejoin: miter; stroke-miterlimit: 4; fill: none; fill-rule: nonzero; opacity: 1;" vector-effect="non-scaling-stroke"  transform=" translate(-399.77, -718.8473951655)" d="M 447.5 719.04 Q 431.75 718.58 415.99 718.79 Q 403.44 718.97 396 718.9 Q 374.02 718.72 352.04 718.75" stroke-linecap="round" />
</g>
		<g transform="matrix(1 0 0 1 -178.2473610606 152.1626463241)" id="mZTlvfM6YrO_x3nbzgOLs"  >
<path style="stroke: rgb(58,136,142); stroke-width: 2; stroke-dasharray: none; stroke-linecap: butt; stroke-dashoffset: 0; stroke-linejoin: miter; stroke-miterlimit: 4; fill: none; fill-rule: nonzero; opacity: 1;" vector-effect="non-scaling-stroke"  transform=" translate(-352, -657.395)" d="M 352.25 596.04 Q 352.07 596.36 351.9 596.68 Q 351.75 596.99 351.75 597.36 Q 352.15 658.05 352.04 718.75" stroke-linecap="round" />
</g>
		<g transform="matrix(1 0 0 1 -130.5422552925 214.3060419073)" id="BHB84GTOkq8iV3E46Te7J"  >
<path style="stroke: rgb(80,154,159); stroke-width: 2; stroke-dasharray: none; stroke-linecap: butt; stroke-dashoffset: 0; stroke-linejoin: miter; stroke-miterlimit: 4; fill: none; fill-rule: nonzero; opacity: 1;" vector-effect="non-scaling-stroke"  transform=" translate(-399.7051057681, -719.5383955832)" d="M 352.04 718.75 Q 351.84 720.35 353.5 720.32 Q 400.48 719.64 447.46 720.25" stroke-linecap="round" />
</g>
		<g transform="matrix(1 0 0 1 -99.6670409802 247.7911721742)" id="EWiKi0sqvp9ysl634tFai"  >
<path style="stroke: rgb(12,27,35); stroke-width: 2; stroke-dasharray: none; stroke-linecap: butt; stroke-dashoffset: 0; stroke-linejoin: miter; stroke-miterlimit: 4; fill: none; fill-rule: nonzero; opacity: 1;" vector-effect="non-scaling-stroke"  transform=" translate(-430.5803200804, -753.0235258501)" d="M 447.96 731 Q 447.54 729.62 446.49 732.29 Q 446.31 732.75 446.32 733.25 Q 446.79 752.66 446.22 773.7 C 446.2 774.28 445.74 774.75 445.16 774.77 Q 430.13 775.29 414.5 775.25 Q 412.86 775.24 414.01 775.31 Q 417.38 775.5 420.74 775.69 Q 422.28 775.77 420 775.67 Q 418.22 775.59 416.5 775.96" stroke-linecap="round" />
</g>
		<g transform="matrix(1 0 0 1 -187.9904747089 -148.1273536759)" id="3o72sIvN_spweKH46X_Yt"  >
<path style="stroke: rgb(12,28,35); stroke-width: 2; stroke-dasharray: none; stroke-linecap: butt; stroke-dashoffset: 0; stroke-linejoin: miter; stroke-miterlimit: 4; fill: none; fill-rule: nonzero; opacity: 1;" vector-effect="non-scaling-stroke"  transform=" translate(-342.2568863517, -357.105)" d="M 323.96 317.75 Q 323.29 317.76 323.23 318.44 Q 322.42 328.53 325.25 338.25 Q 327.65 346.48 330.17 352.74 Q 332.91 359.55 336.59 366.58 Q 344.56 381.77 357.43 393.39 Q 357.49 393.44 358.81 394.87 Q 359.99 396.14 361.75 396.46" stroke-linecap="round" />
</g>
		<g transform="matrix(1 0 0 1 -172.3723610606 -58.5485614714)" id="MjT1IKW4Q6J0AUEy_l4pR"  >
<path style="stroke: rgb(12,28,35); stroke-width: 2; stroke-dasharray: none; stroke-linecap: butt; stroke-dashoffset: 0; stroke-linejoin: miter; stroke-miterlimit: 4; fill: none; fill-rule: nonzero; opacity: 1;" vector-effect="non-scaling-stroke"  transform=" translate(-357.875, -446.6837922045)" d="M 447.71 440 Q 447.09 439.85 446.75 440.14 Q 446.51 440.35 446.48 440.94 Q 446.16 446.72 445.78 452.51 C 445.76 452.8 445.55 453.03 445.26 453.07 Q 442.17 453.48 441.25 453.25 Q 439.71 452.86 438.19 453.11 Q 435.98 453.48 435.25 453.46 Q 425.85 453.25 408.75 453.25 Q 355.09 453.25 301.42 453.25 Q 300.92 453.25 285.59 453.02 Q 277.67 452.9 269.75 453.23 C 269.48 453.24 269.19 453.09 268.97 452.83 Q 268.59 452.36 268.04 452.25" stroke-linecap="round" />
</g>
		<g transform="matrix(1 0 0 1 67.2166780654 -178.7123536759)" id="tI-3tHMbn5fVyDRCRVEs6"  >
<path style="stroke: rgb(13,28,37); stroke-width: 2; stroke-dasharray: none; stroke-linecap: butt; stroke-dashoffset: 0; stroke-linejoin: miter; stroke-miterlimit: 4; fill: none; fill-rule: nonzero; opacity: 1;" vector-effect="non-scaling-stroke"  transform=" translate(-597.464039126, -326.52)" d="M 620.75 272.79 Q 619.11 273 618.36 274.22 Q 617.68 275.3 617.65 275.35 Q 613.42 280.78 609.27 286.26 Q 606.24 290.26 603.19 296.19 Q 594.07 313.89 587.41 331.35 Q 584.09 340.06 581.35 350.39 Q 578.41 361.49 574.44 377.94 Q 574.03 379.63 574.96 380.25" stroke-linecap="round" />
</g>
		<g transform="matrix(1 0 0 1 73.3184331484 -176.9701726663)" id="QBGMTkunzJysQ_IcS-hQn"  >
<path style="stroke: rgb(133,148,154); stroke-width: 2; stroke-dasharray: none; stroke-linecap: butt; stroke-dashoffset: 0; stroke-linejoin: miter; stroke-miterlimit: 4; fill: none; fill-rule: nonzero; opacity: 1;" vector-effect="non-scaling-stroke"  transform=" translate(-603.565794209, -328.2621810096)" d="M 574.96 380.25 L 574 383.24 Q 573.59 384.55 574.68 383.69 Q 578.88 380.41 582.88 376.89 Q 587.94 372.42 590.88 369.87 Q 604.08 358.43 615.21 344.93 Q 623.91 334.38 628.19 325.19 Q 634.09 312.51 632.44 298.09 Q 631.53 290.18 629.34 284.59 Q 626.8 278.12 621.81 272.69 Q 621.25 272.07 620.75 272.79" stroke-linecap="round" />
</g>
		<g transform="matrix(1 0 0 1 67.6076389394 -178.7123536759)" id="9ZPApW6dR943tcS2bd1mS"  >
<path style="stroke: rgb(121,122,118); stroke-width: 2; stroke-dasharray: none; stroke-linecap: butt; stroke-dashoffset: 0; stroke-linejoin: miter; stroke-miterlimit: 4; fill: none; fill-rule: nonzero; opacity: 1;" vector-effect="non-scaling-stroke"  transform=" translate(-597.855, -326.52)" d="M 574.96 380.25 Q 579.09 362.69 581.25 354.75 Q 589.4 324.82 603.82 297.37 Q 608.48 288.5 613.31 282.56 Q 618.38 276.33 620.75 272.79" stroke-linecap="round" />
</g>
		<g transform="matrix(1 0 0 1 -90.7787417227 -185.1047338516)" id="fxmp9VluLvbcEfznxWtZC"  >
<path style="stroke: rgb(13,28,37); stroke-width: 2; stroke-dasharray: none; stroke-linecap: butt; stroke-dashoffset: 0; stroke-linejoin: miter; stroke-miterlimit: 4; fill: none; fill-rule: nonzero; opacity: 1;" vector-effect="non-scaling-stroke"  transform=" translate(-439.4686193379, -320.1276198243)" d="M 428.75 272.79 Q 427.72 273 426.69 274.69 Q 419.61 286.26 418.92 298.6 Q 418.53 305.46 419.71 311.88 Q 420.93 318.5 424.17 324.57 Q 432.03 339.33 443.44 351.56 Q 450.5 359.12 457.94 366.31 Q 459.31 367.64 460.25 367.21" stroke-linecap="round" />
</g>
		<g transform="matrix(1 0 0 1 -76.4000698298 -177.4525143635)" id="gq5Dpz4pEuOpI79AL0Oho"  >
<path style="stroke: rgb(134,149,154); stroke-width: 2; stroke-dasharray: none; stroke-linecap: butt; stroke-dashoffset: 0; stroke-linejoin: miter; stroke-miterlimit: 4; fill: none; fill-rule: nonzero; opacity: 1;" vector-effect="non-scaling-stroke"  transform=" translate(-453.8472912308, -327.7798393124)" d="M 460.25 367.21 Q 468.93 375.63 478.54 382.92 Q 479 383.27 478.87 382.7 Q 472.22 353.12 461.45 325.04 Q 457.29 314.2 453.44 306.73 Q 445.9 292.04 435.31 278.44 Q 432.9 275.34 430.64 273.45 Q 430.57 273.4 430.08 272.85 Q 429.53 272.26 428.75 272.79" stroke-linecap="round" />
</g>
		<g transform="matrix(1 0 0 1 -90.6084601398 -185.2323536759)" id="Zj7fCF7pXa8SX3_0oRNfF"  >
<path style="stroke: rgb(121,123,118); stroke-width: 2; stroke-dasharray: none; stroke-linecap: butt; stroke-dashoffset: 0; stroke-linejoin: miter; stroke-miterlimit: 4; fill: none; fill-rule: nonzero; opacity: 1;" vector-effect="non-scaling-stroke"  transform=" translate(-439.6389009208, -320)" d="M 460.25 367.21 Q 451.76 358.97 443.73 350.27 Q 435.34 341.16 428.93 330.68 Q 422.88 320.76 421.06 312.42 Q 418.17 299.19 422.31 285.56 Q 423.35 282.15 428.75 272.79" stroke-linecap="round" />
</g>
		<g transform="matrix(1 0 0 1 182.6538398075 40.9912594488)" id="9htBs2EkRuOnZdD_V5DKj"  >
<path style="stroke: rgb(6,14,17); stroke-width: 2; stroke-dasharray: none; stroke-linecap: butt; stroke-dashoffset: 0; stroke-linejoin: miter; stroke-miterlimit: 4; fill: none; fill-rule: nonzero; opacity: 1;" vector-effect="non-scaling-stroke"  transform=" translate(-712.9012008681, -546.2236131247)" d="M 711.17 546.3 Q 712.94 547.16 714.78 546.65 C 715.14 546.56 715.41 546.34 715.51 546.07 Q 715.75 545.46 714.75 545.45 Q 712.9 545.45 711.32 545.55 Q 709.8 545.64 711.17 546.3" stroke-linecap="round" />
</g>
		<g transform="matrix(1 0 0 1 -5.0470951135 -0.1000607124)" id="_Q22J5c0CxZWJKLB3JvwF"  >
<path style="stroke: none; stroke-width: 1; stroke-dasharray: none; stroke-linecap: butt; stroke-dashoffset: 0; stroke-linejoin: miter; stroke-miterlimit: 4; fill: rgb(25,54,72); fill-rule: nonzero; opacity: 1;" vector-effect="non-scaling-stroke"  transform=" translate(-525.2002659471, -505.1322929635)" d="M 616 233.79 Q 619 235.4 622.28 235 Q 625 234.66 626.36 234.93 Q 634.43 236.47 641.82 239.82 Q 649.15 243.15 655.14 248.7 Q 673.75 265.96 675 292.5 Q 675.33 299.4 674.96 307.51 Q 674.6 315.48 672.8 322.3 Q 668.45 338.67 659.94 352.44 Q 647.23 372.99 628.91 390.28 Q 621.65 397.14 616.72 401.33 Q 611.39 405.87 603.81 411.56 Q 590.28 421.73 578.97 426.75 Q 575.67 428.22 570 428 Q 563.62 427.76 559.94 427.06 Q 558.46 426.78 558 427.71 L 555.29 427.25 Q 553.87 426.61 554 428.5 Q 554.42 434.68 554.25 442.68 Q 554 454.38 554 456.83 Q 553.98 579.29 553.76 701.75 Q 553.7 737.63 554.52 774.2 C 554.53 774.65 554.16 775.02 553.72 775.01 Q 530 774.82 507.5 775.25 Q 506.97 775.26 506.5 775.96 Q 504.28 776.76 503.21 775 Q 502.41 693.38 502.93 611.75 Q 502.99 602.19 502.89 591.76 Q 502.64 565.88 502.71 540 Q 502.74 530.03 502.66 520 Q 502.44 491.31 502.75 474.5 Q 503.16 451.75 502.99 428.12 C 502.99 427.85 502.75 427.64 502.48 427.69 Q 498.06 428.49 494.27 428.92 Q 488.13 429.63 482.26 428.38 Q 477.76 427.43 471.22 424.09 Q 458.65 417.68 446.56 408.69 Q 429.77 396.19 416.31 382.69 Q 399.88 366.2 388.2 342.94 Q 384.75 336.07 382.51 329.26 Q 380.29 322.51 378.5 315 Q 374.12 296.63 378.06 278.56 Q 382.1 260.05 397.5 247.29 Q 410.5 236.25 427.5 234.29 Q 427.48 234.86 428.01 234.97 Q 430.58 235.47 433.2 235.33 Q 437.2 235.11 441 236.07 Q 443.76 236.78 448.36 238.58 Q 456.2 241.65 462 247.25 Q 471.68 256.6 479.88 269.14 Q 492.31 288.16 500.1 309.5 Q 509.8 336.06 515.5 363.75 Q 518.74 379.49 522.69 405.2 Q 523.35 409.48 523.9 415.84 Q 524.36 421.18 525.06 426.49 Q 525.11 426.86 525.46 426.75 L 530.31 426.85 C 530.59 426.86 530.82 426.62 530.84 426.32 Q 532.48 399.03 538.5 367 Q 546.21 325.99 560.29 290.5 Q 569.59 268.36 585.94 249.69 Q 598.02 235.89 616 233.79 Z M 620.75 272.79 Q 619.11 273 618.36 274.22 Q 617.68 275.3 617.65 275.35 Q 613.42 280.78 609.27 286.26 Q 606.24 290.26 603.19 296.19 Q 594.07 313.89 587.41 331.35 Q 584.09 340.06 581.35 350.39 Q 578.41 361.49 574.44 377.94 Q 574.03 379.63 574.96 380.25 L 574 383.24 Q 573.59 384.55 574.68 383.69 Q 578.88 380.41 582.88 376.89 Q 587.94 372.42 590.88 369.87 Q 604.08 358.43 615.21 344.93 Q 623.91 334.38 628.19 325.19 Q 634.09 312.51 632.44 298.09 Q 631.53 290.18 629.34 284.59 Q 626.8 278.12 621.81 272.69 Q 621.25 272.07 620.75 272.79 Z M 428.75 272.79 Q 427.72 273 426.69 274.69 Q 419.61 286.26 418.92 298.6 Q 418.53 305.46 419.71 311.88 Q 420.93 318.5 424.17 324.57 Q 432.03 339.33 443.44 351.56 Q 450.5 359.12 457.94 366.31 Q 459.31 367.64 460.25 367.21 Q 468.93 375.63 478.54 382.92 Q 479 383.27 478.87 382.7 Q 472.22 353.12 461.45 325.04 Q 457.29 314.2 453.44 306.73 Q 445.9 292.04 435.31 278.44 Q 432.9 275.34 430.64 273.45 Q 430.57 273.4 430.08 272.85 Q 429.53 272.26 428.75 272.79 Z" stroke-linecap="round" />
</g>
		<g transform="matrix(1 0 0 1 87.7312233424 -173.9813351138)" id="ROV1JL1yFKVuhLfOQW9NV"  >
<path style="stroke: none; stroke-width: 1; stroke-dasharray: none; stroke-linecap: butt; stroke-dashoffset: 0; stroke-linejoin: miter; stroke-miterlimit: 4; fill: rgb(0,2,1); fill-rule: nonzero; opacity: 1;" vector-effect="non-scaling-stroke"  transform=" translate(-617.978584403, -331.2510185621)" d="M 616 233.79 Q 623.97 233.14 631.69 235.05 Q 649.23 239.4 661 253.04 Q 671.89 265.55 675 283 Q 679.4 307.71 671.5 330.21 Q 664.95 348.84 653.69 363.94 Q 634.24 390.01 607.56 410.31 Q 593.46 421.04 580.58 427.02 Q 577.15 428.62 573.61 428.83 Q 565.77 429.3 558 427.71 Q 558.46 426.78 559.94 427.06 Q 563.62 427.76 570 428 Q 575.67 428.22 578.97 426.75 Q 590.28 421.73 603.81 411.56 Q 611.39 405.87 616.72 401.33 Q 621.65 397.14 628.91 390.28 Q 647.23 372.99 659.94 352.44 Q 668.45 338.67 672.8 322.3 Q 674.6 315.48 674.96 307.51 Q 675.33 299.4 675 292.5 Q 673.75 265.96 655.14 248.7 Q 649.15 243.15 641.82 239.82 Q 634.43 236.47 626.36 234.93 Q 625 234.66 622.28 235 Q 619 235.4 616 233.79 Z" stroke-linecap="round" />
</g>
		<g transform="matrix(1 0 0 1 -53.770349668 -175.1283191807)" id="ccQMiBoYokr62Q11CwEIS"  >
<path style="stroke: none; stroke-width: 1; stroke-dasharray: none; stroke-linecap: butt; stroke-dashoffset: 0; stroke-linejoin: miter; stroke-miterlimit: 4; fill: rgb(0,2,1); fill-rule: nonzero; opacity: 1;" vector-effect="non-scaling-stroke"  transform=" translate(-476.4770113926, -330.1040344952)" d="M 492.96 290.25 Q 501.02 307.01 506.46 324.8 Q 512.6 344.85 513.69 349.56 Q 518.68 371.2 523.25 402 Q 525.44 416.72 525.46 426.75 Q 525.11 426.86 525.06 426.49 Q 524.36 421.18 523.9 415.84 Q 523.35 409.48 522.69 405.2 Q 518.74 379.49 515.5 363.75 Q 509.8 336.06 500.1 309.5 Q 492.31 288.16 479.88 269.14 Q 471.68 256.6 462 247.25 Q 456.2 241.65 448.36 238.58 Q 443.76 236.78 441 236.07 Q 437.2 235.11 433.2 235.33 Q 430.58 235.47 428.01 234.97 Q 427.48 234.86 427.5 234.29 Q 440.22 232.71 451.19 238.56 Q 461.74 244.19 469.72 253.78 Q 483.65 270.53 492.96 290.25 Z" stroke-linecap="round" />
</g>
		<g transform="matrix(1 0 0 1 -144.9749937153 6.4941681466)" id="4Snl7BMlZ5eSF2iz2o6Jw"  >
<path style="stroke: none; stroke-width: 1; stroke-dasharray: none; stroke-linecap: butt; stroke-dashoffset: 0; stroke-linejoin: miter; stroke-miterlimit: 4; fill: rgb(243,243,236); fill-rule: nonzero; opacity: 1;" vector-effect="non-scaling-stroke"  transform=" translate(-385.2723673453, -511.7265218225)" d="M 397.5 247.29 Q 382.1 260.05 378.06 278.56 Q 374.12 296.63 378.5 315 Q 380.29 322.51 382.51 329.26 Q 384.75 336.07 388.2 342.94 Q 399.88 366.2 416.31 382.69 Q 429.77 396.19 446.56 408.69 Q 458.65 417.68 471.22 424.09 Q 477.76 427.43 482.26 428.38 Q 488.13 429.63 494.27 428.92 Q 498.06 428.49 502.48 427.69 C 502.75 427.64 502.99 427.85 502.99 428.12 Q 503.16 451.75 502.75 474.5 Q 502.44 491.31 502.66 520 Q 502.74 530.03 502.71 540 Q 502.64 565.88 502.89 591.76 Q 502.99 602.19 502.93 611.75 Q 502.41 693.38 503.21 775 Q 502.64 774.49 502.34 773.79 C 502.27 773.6 502.02 773.55 501.86 773.68 Q 501.32 774.11 500.47 773.91 C 500.13 773.82 499.79 773.82 499.52 773.91 Q 494.45 775.54 489.15 775.39 Q 486.08 775.3 484.84 775.35 Q 482.67 775.43 480.5 775.49 Q 476.61 775.59 480.5 775.8 Q 480.69 775.81 480.51 775.84 Q 478.11 776.22 476.09 775.6 Q 474.39 775.09 472.64 775.42 Q 469.13 776.11 466 775.5 Q 464.44 775.2 458.27 776.34 Q 452.7 777.37 447.25 775.96 L 447.96 731 L 448 721.47 C 448.01 721.13 447.91 720.83 447.74 720.61 L 447.46 720.25 L 447.5 719.04 Q 448.08 718.52 448.08 717.75 Q 447.62 657.75 447.75 597.14 C 447.75 596.54 447.27 596.06 446.68 596.06 Q 401.72 596.04 356.25 595.75 Q 353.59 595.73 352.25 596.04 Q 311.64 595.09 271.03 595.74 Q 270.31 595.75 269.54 595.46 Q 268.8 595.18 268.04 595 Q 268.01 594.17 267.86 593.36 Q 267.7 592.47 267.77 591.75 Q 268.64 582.76 267.75 573.75 Q 267.63 572.54 268.27 569.72 Q 268.74 567.62 268.69 565.72 Q 268.49 557.76 268.7 549.33 C 268.72 548.77 269.17 548.3 269.77 548.21 L 277.75 547.04 Q 356.62 546.38 435.5 547.05 Q 441.38 547.1 447.24 547.5 C 447.41 547.51 447.56 547.37 447.56 547.2 Q 447.64 524.96 447.75 503.21 Q 447.75 503.11 447.86 501.81 Q 448.06 499.43 445.25 500.29 Q 431.37 500.1 417.49 500.44 Q 404.96 500.74 397.5 500.73 Q 333.75 500.63 270 500.96 Q 270.18 500.24 269.76 499.9 Q 269.13 499.39 269.06 499.27 Q 267.37 496.27 267.56 492.75 Q 268.07 483.37 267.5 474 Q 267.16 468.4 269.34 457.3 C 269.39 457.04 269.31 456.72 269.11 456.43 Q 268.57 455.62 269 454.54 Q 280.38 454.11 291.75 454.26 Q 307.09 454.46 311.75 454.42 Q 350.87 454.14 390 454.07 Q 417.38 454.03 445.97 455.04 C 446.51 455.06 446.97 454.62 447 454.06 L 447.71 440 Q 427.73 436.08 408.19 426.56 Q 382.46 414.03 361.75 396.46 Q 342.38 378.85 331.93 354.81 Q 324.23 337.09 323.96 317.75 Q 323.51 311.91 323.92 306.07 Q 323.94 305.78 323.82 305.59 Q 323.69 305.38 323.5 305.21 Q 323.83 305.04 324.06 304.78 Q 324.24 304.56 324.3 304.16 Q 326.22 290.05 327 287.25 Q 332.12 268.8 346.43 256.17 Q 352.64 250.69 360.82 249.66 Q 360.88 249.65 362.54 249.71 Q 363.55 249.75 365 249.25 Q 368.4 248.08 373.37 247.86 Q 375.39 247.77 378.18 247.2 Q 380.57 246.7 383.03 246.71 Q 383.08 246.71 385.88 247.26 Q 387.53 247.59 389.5 246.75 Q 390.56 246.3 391.99 246.96 C 392.27 247.09 392.59 247.08 392.88 246.95 Q 394.52 246.16 395.87 247.17 C 396.06 247.31 396.34 247.27 396.5 247.06 Q 396.96 246.47 397.5 247.29 Z" stroke-linecap="round" />
</g>
		<g transform="matrix(1 0 0 1 143.9481113488 6.8625612326)" id="zkapR7YKe18xOoKQ9VSNk"  >
<path style="stroke: none; stroke-width: 1; stroke-dasharray: none; stroke-linecap: butt; stroke-dashoffset: 0; stroke-linejoin: miter; stroke-miterlimit: 4; fill: rgb(242,243,235); fill-rule: nonzero; opacity: 1;" vector-effect="non-scaling-stroke"  transform=" translate(-674.1954724094, -512.0949149085)" d="M 729.75 305.21 Q 729.39 306.43 729.5 308.25 Q 730.59 326.06 726.56 343.54 Q 724.16 353.97 720.13 362.42 Q 714.47 374.32 705.56 384.29 Q 699.73 390.82 692.06 397.31 Q 664.82 420.38 631.95 432.72 Q 623.02 436.08 614 439.21 Q 613.56 439.15 613.22 439.29 C 612.98 439.39 612.83 439.7 612.83 440.06 L 612.83 454.44 C 612.83 454.71 613.05 454.92 613.3 454.89 Q 613.88 454.82 614.44 454.7 Q 615.38 454.5 616.08 454.49 Q 703.27 453.89 790.46 454.5 L 791.09 456.2 C 791.18 456.44 791.11 456.78 790.91 457.1 Q 789.76 458.92 790.06 460.19 Q 791.47 466.12 791.06 471.06 Q 790.36 479.66 790.11 483.63 Q 790.03 484.97 789.18 487.7 Q 788.4 490.2 789 492.75 Q 789.74 495.89 788.53 498.5 C 788.4 498.79 788.45 499.12 788.66 499.3 L 790 500.46 Q 703.5 501.1 617 500.76 Q 616.76 500.76 616.71 501 Q 612.24 499.96 612.58 503.68 Q 612.76 505.74 612.76 505.84 Q 613.02 526.14 613.06 546.44 C 613.06 546.75 613.29 547.01 613.56 547 L 614.75 546.96 Q 666.37 547.02 717.99 547 Q 724.63 547 738.01 546.81 Q 762.88 546.46 787.75 547.23 Q 788.15 547.25 788.68 547.5 Q 789.43 547.86 790.25 547.71 Q 791.44 548.48 791.37 549.94 Q 791.34 550.48 791.54 550.88 Q 793.66 555.18 791.77 559.61 Q 791.56 560.08 791.62 560.57 Q 792.02 563.9 792.28 567.25 Q 792.41 568.87 792.04 571.34 Q 791.66 573.89 792.07 575.5 Q 792.69 578.02 791.55 580.34 Q 790.22 583.03 790.84 585.73 Q 791.9 590.37 790.19 594.78 C 790.06 595.12 789.79 595.35 789.52 595.37 L 787 595.54 Q 727.96 595.66 708 595.5 Q 705.21 595.48 704 595.79 Q 703.62 595.7 703.25 595.79 L 613.92 596 C 613.42 596 613.02 596.4 613.01 596.89 Q 612.66 632.5 612.5 666.75 Q 612.49 669.79 612.79 671.25 L 613.21 718.75 L 613.04 761.25 L 612.54 774.75 Q 612.12 773.49 611.54 774.38 C 611.37 774.64 611.09 774.79 610.81 774.77 Q 608.1 774.58 605.42 774.85 Q 602.02 775.21 600.06 775.17 Q 597.7 775.13 595.35 775.18 Q 593.55 775.22 590.66 774.94 Q 586.71 774.57 582.74 775.17 Q 582.29 775.24 581.79 775.08 Q 579.65 774.38 575.75 774.75 Q 569.4 775.35 563.05 775.9 Q 562.7 775.93 562.1 775.74 Q 561.28 775.48 560.77 776.08 C 560.59 776.29 560.31 776.39 560.02 776.35 L 557.26 775.98 C 556.93 775.94 556.68 775.75 556.63 775.52 Q 556.39 774.49 556.46 773.41 Q 556.49 772.93 556.32 772.64 Q 555.8 771.77 555.54 773.75 Q 555.27 744.01 555.25 676.75 Q 555.22 552 555.29 427.25 L 558 427.71 Q 565.77 429.3 573.61 428.83 Q 577.15 428.62 580.58 427.02 Q 593.46 421.04 607.56 410.31 Q 634.24 390.01 653.69 363.94 Q 664.95 348.84 671.5 330.21 Q 679.4 307.71 675 283 Q 671.89 265.55 661 253.04 Q 663.16 252.77 661.58 250.87 C 661.39 250.64 661.38 250.32 661.57 250.13 Q 662.91 248.74 665.5 248.5 Q 676.57 247.46 690.25 249.75 Q 695.02 250.55 698.72 252.14 Q 701.66 253.4 706.33 256.37 Q 711.32 259.55 715.43 263.76 Q 719.7 268.15 723.1 275.26 Q 726.36 282.09 728.84 289.27 Q 728.96 289.64 729.35 290.11 Q 730.19 291.11 730.69 293.31 Q 732.21 300.04 729.75 305.21 Z" stroke-linecap="round" />
</g>
		<g transform="matrix(1 0 0 1 73.3184331484 -176.9701726663)" id="H1f8zysAhFy84hMAVCZSE"  >
<path style="stroke: none; stroke-width: 1; stroke-dasharray: none; stroke-linecap: butt; stroke-dashoffset: 0; stroke-linejoin: miter; stroke-miterlimit: 4; fill: rgb(241,241,235); fill-rule: nonzero; opacity: 1;" vector-effect="non-scaling-stroke"  transform=" translate(-603.565794209, -328.2621810096)" d="M 574.96 380.25 Q 579.09 362.69 581.25 354.75 Q 589.4 324.82 603.82 297.37 Q 608.48 288.5 613.31 282.56 Q 618.38 276.33 620.75 272.79 Q 621.25 272.07 621.81 272.69 Q 626.8 278.12 629.34 284.59 Q 631.53 290.18 632.44 298.09 Q 634.09 312.51 628.19 325.19 Q 623.91 334.38 615.21 344.93 Q 604.08 358.43 590.88 369.87 Q 587.94 372.42 582.88 376.89 Q 578.88 380.41 574.68 383.69 Q 573.59 384.55 574 383.24 L 574.96 380.25 Z" stroke-linecap="round" />
</g>
		<g transform="matrix(1 0 0 1 -81.261168909 -177.4525143635)" id="neUer--OEKNfco8Gzz_NK"  >
<path style="stroke: none; stroke-width: 1; stroke-dasharray: none; stroke-linecap: butt; stroke-dashoffset: 0; stroke-linejoin: miter; stroke-miterlimit: 4; fill: rgb(242,243,235); fill-rule: nonzero; opacity: 1;" vector-effect="non-scaling-stroke"  transform=" translate(-448.9861921516, -327.7798393124)" d="M 460.25 367.21 Q 451.76 358.97 443.73 350.27 Q 435.34 341.16 428.93 330.68 Q 422.88 320.76 421.06 312.42 Q 418.17 299.19 422.31 285.56 Q 423.35 282.15 428.75 272.79 Q 429.53 272.26 430.08 272.85 Q 430.57 273.4 430.64 273.45 Q 432.9 275.34 435.31 278.44 Q 445.9 292.04 453.44 306.73 Q 457.29 314.2 461.45 325.04 Q 472.22 353.12 478.87 382.7 Q 479 383.27 478.54 382.92 Q 468.93 375.63 460.25 367.21 Z" stroke-linecap="round" />
</g>
		<g transform="matrix(1 0 0 1 -90.7787417227 -185.1047338516)" id="47EineF9sjTNJJpn_p8Pd"  >
<path style="stroke: none; stroke-width: 1; stroke-dasharray: none; stroke-linecap: butt; stroke-dashoffset: 0; stroke-linejoin: miter; stroke-miterlimit: 4; fill: rgb(0,2,1); fill-rule: nonzero; opacity: 1;" vector-effect="non-scaling-stroke"  transform=" translate(-439.4686193379, -320.1276198243)" d="M 428.75 272.79 Q 423.35 282.15 422.31 285.56 Q 418.17 299.19 421.06 312.42 Q 422.88 320.76 428.93 330.68 Q 435.34 341.16 443.73 350.27 Q 451.76 358.97 460.25 367.21 Q 459.31 367.64 457.94 366.31 Q 450.5 359.12 443.44 351.56 Q 432.03 339.33 424.17 324.57 Q 420.93 318.5 419.71 311.88 Q 418.53 305.46 418.92 298.6 Q 419.61 286.26 426.69 274.69 Q 427.72 273 428.75 272.79 Z" stroke-linecap="round" />
</g>
		<g transform="matrix(1 0 0 1 67.2166780654 -178.7123536759)" id="zsi_05uv0OlCMVo0L-czM"  >
<path style="stroke: none; stroke-width: 1; stroke-dasharray: none; stroke-linecap: butt; stroke-dashoffset: 0; stroke-linejoin: miter; stroke-miterlimit: 4; fill: rgb(0,2,1); fill-rule: nonzero; opacity: 1;" vector-effect="non-scaling-stroke"  transform=" translate(-597.464039126, -326.52)" d="M 620.75 272.79 Q 618.38 276.33 613.31 282.56 Q 608.48 288.5 603.82 297.37 Q 589.4 324.82 581.25 354.75 Q 579.09 362.69 574.96 380.25 Q 574.03 379.63 574.44 377.94 Q 578.41 361.49 581.35 350.39 Q 584.09 340.06 587.41 331.35 Q 594.07 313.89 603.19 296.19 Q 606.24 290.26 609.27 286.26 Q 613.42 280.78 617.65 275.35 Q 617.68 275.3 618.36 274.22 Q 619.11 273 620.75 272.79 Z" stroke-linecap="round" />
</g>
		<g transform="matrix(1 0 0 1 -172.4861723511 -125.893936761)" id="vyN7O7UipmumeuITkfs5_"  >
<path style="stroke: none; stroke-width: 1; stroke-dasharray: none; stroke-linecap: butt; stroke-dashoffset: 0; stroke-linejoin: miter; stroke-miterlimit: 4; fill: rgb(24,53,69); fill-rule: nonzero; opacity: 1;" vector-effect="non-scaling-stroke"  transform=" translate(-357.7611887095, -379.3384169149)" d="M 323.5 305.21 Q 323.69 305.38 323.82 305.59 Q 323.94 305.78 323.92 306.07 Q 323.51 311.91 323.96 317.75 Q 323.29 317.76 323.23 318.44 Q 322.42 328.53 325.25 338.25 Q 327.65 346.48 330.17 352.74 Q 332.91 359.55 336.59 366.58 Q 344.56 381.77 357.43 393.39 Q 357.49 393.44 358.81 394.87 Q 359.99 396.14 361.75 396.46 Q 382.46 414.03 408.19 426.56 Q 427.73 436.08 447.71 440 Q 447.09 439.85 446.75 440.14 Q 446.51 440.35 446.48 440.94 Q 446.16 446.72 445.78 452.51 C 445.76 452.8 445.55 453.03 445.26 453.07 Q 442.17 453.48 441.25 453.25 Q 439.71 452.86 438.19 453.11 Q 435.98 453.48 435.25 453.46 Q 425.85 453.25 408.75 453.25 Q 355.09 453.25 301.42 453.25 Q 300.92 453.25 285.59 453.02 Q 277.67 452.9 269.75 453.23 C 269.48 453.24 269.19 453.09 268.97 452.83 Q 268.59 452.36 268.04 452.25 Q 268.25 444.26 268 412.75 Q 267.86 396.05 268.24 318.28 Q 268.24 318.19 267.92 312.73 Q 267.72 309.2 268.62 305.74 C 268.7 305.45 268.96 305.25 269.26 305.25 L 323.5 305.21 Z" stroke-linecap="round" />
</g>
		<g transform="matrix(1 0 0 1 171.6276233137 -126.027668738)" id="8NUxIdyHu1WRbfffG8l0X"  >
<path style="stroke: none; stroke-width: 1; stroke-dasharray: none; stroke-linecap: butt; stroke-dashoffset: 0; stroke-linejoin: miter; stroke-miterlimit: 4; fill: rgb(24,53,70); fill-rule: nonzero; opacity: 1;" vector-effect="non-scaling-stroke"  transform=" translate(-701.8749843743, -379.2046849379)" d="M 790.21 305.5 Q 789.39 305.45 789.42 306.1 Q 789.46 306.78 789.44 306.9 Q 789 309.95 789 314.5 Q 789 383.75 789 453.01 C 789 453.28 788.77 453.51 788.49 453.5 Q 764.38 452.96 740.25 453.25 Q 726.33 453.42 651.56 452.82 Q 633.4 452.67 614.53 453.53 C 614.25 453.55 614.01 453.33 613.98 453.05 Q 613.39 446.23 614 439.21 Q 623.02 436.08 631.95 432.72 Q 664.82 420.38 692.06 397.31 Q 699.73 390.82 705.56 384.29 Q 714.47 374.32 720.13 362.42 Q 724.16 353.97 726.56 343.54 Q 730.59 326.06 729.5 308.25 Q 729.39 306.43 729.75 305.21 Q 755.65 305.33 771.75 305 Q 782.13 304.79 790.21 305.5 Z" stroke-linecap="round" />
</g>
		<g transform="matrix(1 0 0 1 171.3976389394 -125.0456024781)" id="cIySu1kvxC-b2S889ULh-"  >
<path style="stroke: none; stroke-width: 1; stroke-dasharray: none; stroke-linecap: butt; stroke-dashoffset: 0; stroke-linejoin: miter; stroke-miterlimit: 4; fill: rgb(0,2,1); fill-rule: nonzero; opacity: 1;" vector-effect="non-scaling-stroke"  transform=" translate(-701.645, -380.1867511978)" d="M 790.21 305.5 Q 789.72 380 790.46 454.5 Q 703.27 453.89 616.08 454.49 Q 615.38 454.5 614.44 454.7 Q 613.88 454.82 613.3 454.89 C 613.05 454.92 612.83 454.71 612.83 454.44 L 612.83 440.06 C 612.83 439.7 612.98 439.39 613.22 439.29 Q 613.56 439.15 614 439.21 Q 613.39 446.23 613.98 453.05 C 614.01 453.33 614.25 453.55 614.53 453.53 Q 633.4 452.67 651.56 452.82 Q 726.33 453.42 740.25 453.25 Q 764.38 452.96 788.49 453.5 C 788.77 453.51 789 453.28 789 453.01 Q 789 383.75 789 314.5 Q 789 309.95 789.44 306.9 Q 789.46 306.78 789.42 306.1 Q 789.39 305.45 790.21 305.5 Z" stroke-linecap="round" />
</g>
		<g transform="matrix(1 0 0 1 -187.9904747089 -148.1273536759)" id="ktcekYZLOMnYk80AXP2c0"  >
<path style="stroke: none; stroke-width: 1; stroke-dasharray: none; stroke-linecap: butt; stroke-dashoffset: 0; stroke-linejoin: miter; stroke-miterlimit: 4; fill: rgb(0,2,1); fill-rule: nonzero; opacity: 1;" vector-effect="non-scaling-stroke"  transform=" translate(-342.2568863517, -357.105)" d="M 323.96 317.75 Q 324.23 337.09 331.93 354.81 Q 342.38 378.85 361.75 396.46 Q 359.99 396.14 358.81 394.87 Q 357.49 393.44 357.43 393.39 Q 344.56 381.77 336.59 366.58 Q 332.91 359.55 330.17 352.74 Q 327.65 346.48 325.25 338.25 Q 322.42 328.53 323.23 318.44 Q 323.29 317.76 323.96 317.75 Z" stroke-linecap="round" />
</g>
		<g transform="matrix(1 0 0 1 0.8282709874 96.4106780154)" id="2p7CA3mgbSQAn1Mcgq6UL"  >
<path style="stroke: none; stroke-width: 1; stroke-dasharray: none; stroke-linecap: butt; stroke-dashoffset: 0; stroke-linejoin: miter; stroke-miterlimit: 4; fill: rgb(0,2,1); fill-rule: nonzero; opacity: 1;" vector-effect="non-scaling-stroke"  transform=" translate(-531.075632048, -601.6430316913)" d="M 555.29 427.25 Q 555.22 552 555.25 676.75 Q 555.27 744.01 555.54 773.75 L 555.65 775.93 C 555.67 776.2 555.45 776.43 555.18 776.42 L 506.5 775.96 Q 506.97 775.26 507.5 775.25 Q 530 774.82 553.72 775.01 C 554.16 775.02 554.53 774.65 554.52 774.2 Q 553.7 737.63 553.76 701.75 Q 553.98 579.29 554 456.83 Q 554 454.38 554.25 442.68 Q 554.42 434.68 554 428.5 Q 553.87 426.61 555.29 427.25 Z" stroke-linecap="round" />
</g>
		<g transform="matrix(1 0 0 1 -172.579409182 -57.7616505313)" id="9lFZsugxkevrZ6cMUqdM0"  >
<path style="stroke: none; stroke-width: 1; stroke-dasharray: none; stroke-linecap: butt; stroke-dashoffset: 0; stroke-linejoin: miter; stroke-miterlimit: 4; fill: rgb(0,2,1); fill-rule: nonzero; opacity: 1;" vector-effect="non-scaling-stroke"  transform=" translate(-357.6679518786, -447.4707031446)" d="M 447.71 440 L 447 454.06 C 446.97 454.62 446.51 455.06 445.97 455.04 Q 417.38 454.03 390 454.07 Q 350.87 454.14 311.75 454.42 Q 307.09 454.46 291.75 454.26 Q 280.38 454.11 269 454.54 Q 267.38 454.22 268.04 452.25 Q 268.59 452.36 268.97 452.83 C 269.19 453.09 269.48 453.24 269.75 453.23 Q 277.67 452.9 285.59 453.02 Q 300.92 453.25 301.42 453.25 Q 355.09 453.25 408.75 453.25 Q 425.85 453.25 435.25 453.46 Q 435.98 453.48 438.19 453.11 Q 439.71 452.86 441.25 453.25 Q 442.17 453.48 445.26 453.07 C 445.55 453.03 445.76 452.8 445.78 452.51 Q 446.16 446.72 446.48 440.94 Q 446.51 440.35 446.75 440.14 Q 447.09 439.85 447.71 440 Z" stroke-linecap="round" />
</g>
		<g transform="matrix(1 0 0 1 -172.9059005732 18.6497958639)" id="AEPKd4muXNFMV7W5Fc2rj"  >
<path style="stroke: none; stroke-width: 1; stroke-dasharray: none; stroke-linecap: butt; stroke-dashoffset: 0; stroke-linejoin: miter; stroke-miterlimit: 4; fill: rgb(24,53,69); fill-rule: nonzero; opacity: 1;" vector-effect="non-scaling-stroke"  transform=" translate(-357.3414604874, -523.8821495398)" d="M 445.25 500.29 Q 446.37 504.07 446.44 509.56 Q 446.66 527.53 446.5 545.13 C 446.49 545.77 445.97 546.28 445.34 546.26 Q 436.39 546.02 427.6 545.66 Q 417.9 545.25 409.88 545.25 Q 352.66 545.25 295.43 545.25 Q 289.02 545.25 282.59 545.58 Q 276.17 545.92 269.75 546.25 Q 268.99 546.29 269.29 547.25 Q 268.87 547.67 268.45 547.48 C 268.21 547.38 268.06 547.07 268.07 546.7 Q 268.43 524.13 268.18 501.56 Q 268.17 500.28 270 500.96 Q 333.75 500.63 397.5 500.73 Q 404.96 500.74 417.49 500.44 Q 431.37 500.1 445.25 500.29 Z" stroke-linecap="round" />
</g>
		<g transform="matrix(1 0 0 1 -171.7281002109 18.4006325573)" id="xxJ8AXrKB-Tr2GvLQ1gU0"  >
<path style="stroke: none; stroke-width: 1; stroke-dasharray: none; stroke-linecap: butt; stroke-dashoffset: 0; stroke-linejoin: miter; stroke-miterlimit: 4; fill: rgb(0,2,1); fill-rule: nonzero; opacity: 1;" vector-effect="non-scaling-stroke"  transform=" translate(-358.5192608497, -523.6329862332)" d="M 445.25 500.29 Q 448.06 499.43 447.86 501.81 Q 447.75 503.11 447.75 503.21 Q 447.64 524.96 447.56 547.2 C 447.56 547.37 447.41 547.51 447.24 547.5 Q 441.38 547.1 435.5 547.05 Q 356.62 546.38 277.75 547.04 L 269.29 547.25 Q 268.99 546.29 269.75 546.25 Q 276.17 545.92 282.59 545.58 Q 289.02 545.25 295.43 545.25 Q 352.66 545.25 409.88 545.25 Q 417.9 545.25 427.6 545.66 Q 436.39 546.02 445.34 546.26 C 445.97 546.28 446.49 545.77 446.5 545.13 Q 446.66 527.53 446.44 509.56 Q 446.37 504.07 445.25 500.29 Z" stroke-linecap="round" />
</g>
		<g transform="matrix(1 0 0 1 172.2526389394 18.8999471414)" id="nEVUJ444RWpeU1xg1VhxW"  >
<path style="stroke: none; stroke-width: 1; stroke-dasharray: none; stroke-linecap: butt; stroke-dashoffset: 0; stroke-linejoin: miter; stroke-miterlimit: 4; fill: rgb(11,25,32); fill-rule: nonzero; opacity: 1;" vector-effect="non-scaling-stroke"  transform=" translate(-702.5, -524.1323008173)" d="M 790 500.46 L 790.25 547.71 Q 789.43 547.86 788.68 547.5 Q 788.15 547.25 787.75 547.23 Q 762.88 546.46 738.01 546.81 Q 724.63 547 717.99 547 Q 666.37 547.02 614.75 546.96 Q 615.47 545.4 617.5 545.75 Q 619.97 546.17 622.58 545.66 Q 625.93 545.01 627.51 545.03 Q 634.76 545.12 642.01 545.3 Q 648.34 545.46 656.49 545.17 Q 667 544.8 677.52 545.08 Q 681.67 545.19 687.47 545.13 Q 691.71 545.09 697.44 545.19 Q 723.58 545.62 756.5 545.33 Q 765.22 545.25 772.49 545.55 Q 780.33 545.86 788.49 546.29 C 788.77 546.31 789 546.08 789 545.8 L 789.19 502.06 C 789.19 501.78 788.97 501.56 788.69 501.56 Q 773.38 501.66 758.07 501.57 Q 757.81 501.56 757.57 501.66 Q 757.34 501.76 757.11 501.85 Q 756.75 502 756.36 502 Q 684.4 502.11 661.44 501.81 Q 639.84 501.53 618.25 502.03 Q 616.74 502.07 616.71 501 Q 616.76 500.76 617 500.76 Q 703.5 501.1 790 500.46 Z M 711.17 546.3 Q 712.94 547.16 714.78 546.65 C 715.14 546.56 715.41 546.34 715.51 546.07 Q 715.75 545.46 714.75 545.45 Q 712.9 545.45 711.32 545.55 Q 709.8 545.64 711.17 546.3 Z" stroke-linecap="round" />
</g>
		<g transform="matrix(1 0 0 1 170.5720838852 18.4702879545)" id="2iqZ8loDS934AMU_ENkir"  >
<path style="stroke: none; stroke-width: 1; stroke-dasharray: none; stroke-linecap: butt; stroke-dashoffset: 0; stroke-linejoin: miter; stroke-miterlimit: 4; fill: rgb(24,53,69); fill-rule: nonzero; opacity: 1;" vector-effect="non-scaling-stroke"  transform=" translate(-700.8194449458, -523.7026416304)" d="M 616.71 501 Q 616.74 502.07 618.25 502.03 Q 639.84 501.53 661.44 501.81 Q 684.4 502.11 756.36 502 Q 756.75 502 757.11 501.85 Q 757.34 501.76 757.57 501.66 Q 757.81 501.56 758.07 501.57 Q 773.38 501.66 788.69 501.56 C 788.97 501.56 789.19 501.78 789.19 502.06 L 789 545.8 C 789 546.08 788.77 546.31 788.49 546.29 Q 780.33 545.86 772.49 545.55 Q 765.22 545.25 756.5 545.33 Q 723.58 545.62 697.44 545.19 Q 691.71 545.09 687.47 545.13 Q 681.67 545.19 677.52 545.08 Q 667 544.8 656.49 545.17 Q 648.34 545.46 642.01 545.3 Q 634.76 545.12 627.51 545.03 Q 625.93 545.01 622.58 545.66 Q 619.97 546.17 617.5 545.75 Q 615.47 545.4 614.75 546.96 L 613.56 547 C 613.29 547.01 613.06 546.75 613.06 546.44 Q 613.02 526.14 612.76 505.84 Q 612.76 505.74 612.58 503.68 Q 612.24 499.96 616.71 501 Z" stroke-linecap="round" />
</g>
		<g transform="matrix(1 0 0 1 182.6538398075 40.9912594488)" id="dBXaANrN4WI4zW5_nQaVM"  >
<path style="stroke: none; stroke-width: 1; stroke-dasharray: none; stroke-linecap: butt; stroke-dashoffset: 0; stroke-linejoin: miter; stroke-miterlimit: 4; fill: rgb(0,2,1); fill-rule: nonzero; opacity: 1;" vector-effect="non-scaling-stroke"  transform=" translate(-712.9012008681, -546.2236131247)" d="M 711.17 546.3 Q 709.8 545.64 711.32 545.55 Q 712.9 545.45 714.75 545.45 Q 715.75 545.46 715.51 546.07 C 715.41 546.34 715.14 546.56 714.78 546.65 Q 712.94 547.16 711.17 546.3 Z" stroke-linecap="round" />
</g>
		<g transform="matrix(1 0 0 1 -172.2842109432 180.2676463241)" id="AnyfbXMBa-6ECBlLB7p9g"  >
<path style="stroke: none; stroke-width: 1; stroke-dasharray: none; stroke-linecap: butt; stroke-dashoffset: 0; stroke-linejoin: miter; stroke-miterlimit: 4; fill: rgb(23,52,68); fill-rule: nonzero; opacity: 1;" vector-effect="non-scaling-stroke"  transform=" translate(-357.9631501174, -685.5)" d="M 268.04 595 Q 268.8 595.18 269.54 595.46 Q 270.31 595.75 271.03 595.74 Q 311.64 595.09 352.25 596.04 Q 352.07 596.36 351.9 596.68 Q 351.75 596.99 351.75 597.36 Q 352.15 658.05 352.04 718.75 Q 351.84 720.35 353.5 720.32 Q 400.48 719.64 447.46 720.25 L 447.74 720.61 C 447.91 720.83 448.01 721.13 448 721.47 L 447.96 731 Q 447.54 729.62 446.49 732.29 Q 446.31 732.75 446.32 733.25 Q 446.79 752.66 446.22 773.7 C 446.2 774.28 445.74 774.75 445.16 774.77 Q 430.13 775.29 414.5 775.25 Q 412.86 775.24 414.01 775.31 Q 417.38 775.5 420.74 775.69 Q 422.28 775.77 420 775.67 Q 418.22 775.59 416.5 775.96 L 268.81 776 C 268.35 776 267.99 775.63 268 775.17 Q 268.1 770.75 268.09 766.25 Q 267.88 680.63 268.04 595 Z" stroke-linecap="round" />
</g>
		<g transform="matrix(1 0 0 1 171.0117012129 180.4940055573)" id="seHRkurRVSzuxlwosTGu5"  >
<path style="stroke: none; stroke-width: 1; stroke-dasharray: none; stroke-linecap: butt; stroke-dashoffset: 0; stroke-linejoin: miter; stroke-miterlimit: 4; fill: rgb(24,53,69); fill-rule: nonzero; opacity: 1;" vector-effect="non-scaling-stroke"  transform=" translate(-701.2590622735, -685.7263592332)" d="M 787 595.54 L 787 595.71 Q 785.83 595.91 786.85 596.35 C 787.06 596.44 787.35 596.46 787.66 596.41 Q 788.82 596.23 789.27 597.04 Q 789.52 597.49 789.4 598.51 Q 789.01 601.57 789 606.25 Q 788.85 690.47 789.19 774.69 C 789.19 774.97 788.96 775.2 788.69 775.19 Q 773.44 774.9 758.19 775.31 Q 755.25 775.39 748.99 775.07 Q 748.81 775.06 748.65 775.09 Q 745.29 775.57 749 775.53 Q 752.87 775.5 756.74 775.69 Q 758.28 775.77 756 775.7 Q 752.74 775.59 749.5 775.96 L 672 775.96 Q 670.98 775.25 670.5 775.25 Q 642.62 775.21 614.74 775 C 614.2 774.99 613.76 774.57 613.74 774.04 Q 613.52 769 613.75 763.75 Q 613.83 761.93 613.04 761.25 L 613.21 718.75 Q 613.13 719.38 613.46 719.75 Q 615.12 720.58 617 720.21 L 703.95 719.94 C 704.22 719.93 704.44 719.71 704.44 719.44 L 704 595.79 Q 705.21 595.48 708 595.5 Q 727.96 595.66 787 595.54 Z" stroke-linecap="round" />
</g>
		<g transform="matrix(1 0 0 1 -130.3323610606 152.1590055573)" id="MLFukXFB3lZs_vTURCPua"  >
<path style="stroke: none; stroke-width: 1; stroke-dasharray: none; stroke-linecap: butt; stroke-dashoffset: 0; stroke-linejoin: miter; stroke-miterlimit: 4; fill: rgb(93,220,216); fill-rule: nonzero; opacity: 1;" vector-effect="non-scaling-stroke"  transform=" translate(-399.915, -657.3913592332)" d="M 447.5 719.04 Q 431.75 718.58 415.99 718.79 Q 403.44 718.97 396 718.9 Q 374.02 718.72 352.04 718.75 Q 352.15 658.05 351.75 597.36 Q 351.75 596.99 351.9 596.68 Q 352.07 596.36 352.25 596.04 Q 353.59 595.73 356.25 595.75 Q 401.72 596.04 446.68 596.06 C 447.27 596.06 447.75 596.54 447.75 597.14 Q 447.62 657.75 448.08 717.75 Q 448.08 718.52 447.5 719.04 Z" stroke-linecap="round" />
</g>
		<g transform="matrix(1 0 0 1 127.6262142454 152.8861264324)" id="rEuahZyFzjA4nSl7Y-gkG"  >
<path style="stroke: none; stroke-width: 1; stroke-dasharray: none; stroke-linecap: butt; stroke-dashoffset: 0; stroke-linejoin: miter; stroke-miterlimit: 4; fill: rgb(93,220,216); fill-rule: nonzero; opacity: 1;" vector-effect="non-scaling-stroke"  transform=" translate(-657.873575306, -658.1184801083)" d="M 703.25 595.79 L 703.19 718.46 C 703.19 718.73 702.98 718.94 702.71 718.94 Q 671 718.81 639.31 718.94 Q 623.64 719 618.46 719.23 Q 617.94 719.25 617.62 719.51 Q 617.25 719.8 617 720.21 Q 615.12 720.58 613.46 719.75 L 613.19 671.82 C 613.19 671.61 613.12 671.44 613.01 671.37 L 612.79 671.25 Q 612.49 669.79 612.5 666.75 Q 612.66 632.5 613.01 596.89 C 613.02 596.4 613.42 596 613.92 596 L 703.25 595.79 Z" stroke-linecap="round" />
</g>
		<g transform="matrix(1 0 0 1 130.4726389394 152.7338963241)" id="TEicL3sBgZLTTZ6FC0RMC"  >
<path style="stroke: none; stroke-width: 1; stroke-dasharray: none; stroke-linecap: butt; stroke-dashoffset: 0; stroke-linejoin: miter; stroke-miterlimit: 4; fill: rgb(136,255,250); fill-rule: nonzero; opacity: 1;" vector-effect="non-scaling-stroke"  transform=" translate(-660.72, -657.96625)" d="M 703.25 595.79 Q 703.62 595.7 704 595.79 L 704.44 719.44 C 704.44 719.71 704.22 719.93 703.95 719.94 L 617 720.21 Q 617.25 719.8 617.62 719.51 Q 617.94 719.25 618.46 719.23 Q 623.64 719 639.31 718.94 Q 671 718.81 702.71 718.94 C 702.98 718.94 703.19 718.73 703.19 718.46 L 703.25 595.79 Z" stroke-linecap="round" />
</g>
		<g transform="matrix(1 0 0 1 238.0538653969 180.7526463241)" id="ZQyTWakDvKDtFzMI8nVeB"  >
<path style="stroke: none; stroke-width: 1; stroke-dasharray: none; stroke-linecap: butt; stroke-dashoffset: 0; stroke-linejoin: miter; stroke-miterlimit: 4; fill: rgb(0,2,1); fill-rule: nonzero; opacity: 1;" vector-effect="non-scaling-stroke"  transform=" translate(-768.3012264575, -685.985)" d="M 787 595.71 L 789.95 595.93 C 790.22 595.95 790.44 596.22 790.43 596.56 Q 789.72 633.93 790 657 Q 790.35 686.3 790.15 706.76 Q 790.02 719.13 790.07 726.75 Q 790.23 750.97 790.32 775.75 C 790.32 776.03 790.09 776.26 789.8 776.26 L 749.5 775.96 Q 752.74 775.59 756 775.7 Q 758.28 775.77 756.74 775.69 Q 752.87 775.5 749 775.53 Q 745.29 775.57 748.65 775.09 Q 748.81 775.06 748.99 775.07 Q 755.25 775.39 758.19 775.31 Q 773.44 774.9 788.69 775.19 C 788.96 775.2 789.19 774.97 789.19 774.69 Q 788.85 690.47 789 606.25 Q 789.01 601.57 789.4 598.51 Q 789.52 597.49 789.27 597.04 Q 788.82 596.23 787.66 596.41 C 787.35 596.46 787.06 596.44 786.85 596.35 Q 785.83 595.91 787 595.71 Z" stroke-linecap="round" />
</g>
		<g transform="matrix(1 0 0 1 82.8776389394 190.2676463241)" id="vL011w9KvvHRfmkhL3Kih"  >
<path style="stroke: none; stroke-width: 1; stroke-dasharray: none; stroke-linecap: butt; stroke-dashoffset: 0; stroke-linejoin: miter; stroke-miterlimit: 4; fill: rgb(68,177,177); fill-rule: nonzero; opacity: 1;" vector-effect="non-scaling-stroke"  transform=" translate(-613.125, -695.5)" d="M 612.79 671.25 L 613.01 671.37 C 613.12 671.44 613.19 671.61 613.19 671.82 L 613.46 719.75 Q 613.13 719.38 613.21 718.75 L 612.79 671.25 Z" stroke-linecap="round" />
</g>
		<g transform="matrix(1 0 0 1 -130.5222552925 214.2584370728)" id="ZMUiR_fcTozmufdXYCcYI"  >
<path style="stroke: none; stroke-width: 1; stroke-dasharray: none; stroke-linecap: butt; stroke-dashoffset: 0; stroke-linejoin: miter; stroke-miterlimit: 4; fill: rgb(136,255,250); fill-rule: nonzero; opacity: 1;" vector-effect="non-scaling-stroke"  transform=" translate(-399.7251057681, -719.4907907487)" d="M 447.5 719.04 L 447.46 720.25 Q 400.48 719.64 353.5 720.32 Q 351.84 720.35 352.04 718.75 Q 374.02 718.72 396 718.9 Q 403.44 718.97 415.99 718.79 Q 431.75 718.58 447.5 719.04 Z" stroke-linecap="round" />
</g>
		<g transform="matrix(1 0 0 1 -99.6670409802 247.7911721742)" id="NscIXruG3NNg0Ydlc0hIU"  >
<path style="stroke: none; stroke-width: 1; stroke-dasharray: none; stroke-linecap: butt; stroke-dashoffset: 0; stroke-linejoin: miter; stroke-miterlimit: 4; fill: rgb(0,2,1); fill-rule: nonzero; opacity: 1;" vector-effect="non-scaling-stroke"  transform=" translate(-430.5803200804, -753.0235258501)" d="M 447.96 731 L 447.25 775.96 L 416.5 775.96 Q 418.22 775.59 420 775.67 Q 422.28 775.77 420.74 775.69 Q 417.38 775.5 414.01 775.31 Q 412.86 775.24 414.5 775.25 Q 430.13 775.29 445.16 774.77 C 445.74 774.75 446.2 774.28 446.22 773.7 Q 446.79 752.66 446.32 733.25 Q 446.31 732.75 446.49 732.29 Q 447.54 729.62 447.96 731 Z" stroke-linecap="round" />
</g>
		<g transform="matrix(1 0 0 1 111.8852450625 263.3926463241)" id="0SiGJJymb9dVkiG9AFKWV"  >
<path style="stroke: none; stroke-width: 1; stroke-dasharray: none; stroke-linecap: butt; stroke-dashoffset: 0; stroke-linejoin: miter; stroke-miterlimit: 4; fill: rgb(0,2,1); fill-rule: nonzero; opacity: 1;" vector-effect="non-scaling-stroke"  transform=" translate(-642.1326061231, -768.625)" d="M 613.04 761.25 Q 613.83 761.93 613.75 763.75 Q 613.52 769 613.74 774.04 C 613.76 774.57 614.2 774.99 614.74 775 Q 642.62 775.21 670.5 775.25 Q 670.98 775.25 672 775.96 L 612.99 776 C 612.62 776 612.32 775.81 612.29 775.56 Q 612.24 775.19 612.54 774.75 L 613.04 761.25 Z" stroke-linecap="round" />
</g>
</g>
</g>
</svg>